<?xml version="1.0" encoding="utf-8" standalone="no"?>
<!DOCTYPE svg PUBLIC "-//W3C//DTD SVG 1.1//EN"
  "http://www.w3.org/Graphics/SVG/1.1/DTD/svg11.dtd">
<svg xmlns:xlink="http://www.w3.org/1999/xlink" width="424.996875pt" height="351.34575pt" viewBox="0 0 424.996875 351.34575" xmlns="http://www.w3.org/2000/svg" version="1.1">
 <metadata>
  <rdf:RDF xmlns:dc="http://purl.org/dc/elements/1.1/" xmlns:cc="http://creativecommons.org/ns#" xmlns:rdf="http://www.w3.org/1999/02/22-rdf-syntax-ns#">
   <cc:Work>
    <dc:type rdf:resource="http://purl.org/dc/dcmitype/StillImage"/>
    <dc:date>2025-10-16T17:07:21.131322</dc:date>
    <dc:format>image/svg+xml</dc:format>
    <dc:creator>
     <cc:Agent>
      <dc:title>Matplotlib v3.10.7, https://matplotlib.org/</dc:title>
     </cc:Agent>
    </dc:creator>
   </cc:Work>
  </rdf:RDF>
 </metadata>
 <defs>
  <style type="text/css">*{stroke-linejoin: round; stroke-linecap: butt}</style>
 </defs>
 <g id="figure_1">
  <g id="patch_1">
   <path d="M 0 351.34575 
L 424.996875 351.34575 
L 424.996875 0 
L 0 0 
z
" style="fill: #ffffff"/>
  </g>
  <g id="axes_1">
   <g id="patch_2">
    <path d="M 48.506875 337.091062 
L 417.796875 337.091062 
L 417.796875 11.759062 
L 48.506875 11.759062 
z
" style="fill: #ffffff"/>
   </g>
   <g id="FillBetweenPolyCollection_1">
    <path d="M 233.151875 337.091062 
L 221.479664 337.091062 
L 218.302141 332.585813 
L 215.457854 328.080564 
L 213.28691 323.575315 
L 211.981579 319.070065 
L 211.538817 314.564816 
L 211.779258 310.059567 
L 212.418378 305.554318 
L 213.157595 301.049068 
L 213.762375 296.543819 
L 214.105834 292.03857 
L 214.171861 287.533321 
L 214.025589 283.028071 
L 213.768093 278.522822 
L 213.49455 274.017573 
L 213.27013 269.512323 
L 213.127555 265.007074 
L 213.07954 260.501825 
L 213.133649 255.996576 
L 213.299203 251.491326 
L 213.583592 246.986077 
L 213.983433 242.480828 
L 214.479251 237.975579 
L 215.038908 233.470329 
L 215.627667 228.96508 
L 216.217298 224.459831 
L 216.787495 219.954582 
L 217.319736 215.449332 
L 217.790796 210.944083 
L 218.174229 206.438834 
L 218.451499 201.933584 
L 218.625428 197.428335 
L 218.724832 192.923086 
L 218.794575 188.417837 
L 218.87594 183.912587 
L 218.989621 179.407338 
L 219.131562 174.902089 
L 219.281882 170.39684 
L 219.417149 165.89159 
L 219.514081 161.386341 
L 219.539505 156.881092 
L 219.431074 152.375843 
L 219.077854 147.870593 
L 218.306317 143.365344 
L 216.869545 138.860095 
L 214.435234 134.354845 
L 210.579105 129.849596 
L 204.810967 125.344347 
L 196.670113 120.839098 
L 185.897995 116.333848 
L 172.62595 111.828599 
L 157.451369 107.32335 
L 141.296699 102.818101 
L 125.087921 98.312851 
L 109.470667 93.807602 
L 94.830485 89.302353 
L 81.687949 84.797104 
L 71.199382 80.291854 
L 65.292784 75.786605 
L 66.138077 71.281356 
L 75.127813 66.776106 
L 91.969279 62.270857 
L 114.49481 57.765608 
L 139.347887 53.260359 
L 163.144972 48.755109 
L 183.47205 44.24986 
L 199.28389 39.744611 
L 210.700598 35.239362 
L 218.500332 30.734112 
L 223.635399 26.228863 
L 226.941199 21.723614 
L 229.038583 17.218365 
L 230.350269 12.713115 
L 231.154744 8.207866 
L 231.63606 3.702617 
L 231.917683 -0.802633 
L 232.082866 -5.307882 
L 232.187027 -9.813131 
L 232.265867 -14.31838 
L 232.3408 -18.82363 
L 232.422428 -23.328879 
L 232.513004 -27.834128 
L 232.608921 -32.339377 
L 232.703627 -36.844627 
L 232.790527 -41.349876 
L 232.865068 -45.855125 
L 232.925562 -50.360374 
L 232.972838 -54.865624 
L 233.009159 -59.370873 
L 233.036829 -63.876122 
L 233.05695 -68.381372 
L 233.068801 -72.886621 
L 233.07021 -77.39187 
L 233.058973 -81.897119 
L 233.034845 -86.402369 
L 233.001208 -90.907618 
L 232.965355 -95.412867 
L 232.936832 -99.918116 
L 232.924237 -104.423366 
L 232.931924 -108.928615 
L 233.151875 -108.928615 
L 233.151875 -108.928615 
L 233.151875 -104.423366 
L 233.151875 -99.918116 
L 233.151875 -95.412867 
L 233.151875 -90.907618 
L 233.151875 -86.402369 
L 233.151875 -81.897119 
L 233.151875 -77.39187 
L 233.151875 -72.886621 
L 233.151875 -68.381372 
L 233.151875 -63.876122 
L 233.151875 -59.370873 
L 233.151875 -54.865624 
L 233.151875 -50.360374 
L 233.151875 -45.855125 
L 233.151875 -41.349876 
L 233.151875 -36.844627 
L 233.151875 -32.339377 
L 233.151875 -27.834128 
L 233.151875 -23.328879 
L 233.151875 -18.82363 
L 233.151875 -14.31838 
L 233.151875 -9.813131 
L 233.151875 -5.307882 
L 233.151875 -0.802633 
L 233.151875 3.702617 
L 233.151875 8.207866 
L 233.151875 12.713115 
L 233.151875 17.218365 
L 233.151875 21.723614 
L 233.151875 26.228863 
L 233.151875 30.734112 
L 233.151875 35.239362 
L 233.151875 39.744611 
L 233.151875 44.24986 
L 233.151875 48.755109 
L 233.151875 53.260359 
L 233.151875 57.765608 
L 233.151875 62.270857 
L 233.151875 66.776106 
L 233.151875 71.281356 
L 233.151875 75.786605 
L 233.151875 80.291854 
L 233.151875 84.797104 
L 233.151875 89.302353 
L 233.151875 93.807602 
L 233.151875 98.312851 
L 233.151875 102.818101 
L 233.151875 107.32335 
L 233.151875 111.828599 
L 233.151875 116.333848 
L 233.151875 120.839098 
L 233.151875 125.344347 
L 233.151875 129.849596 
L 233.151875 134.354845 
L 233.151875 138.860095 
L 233.151875 143.365344 
L 233.151875 147.870593 
L 233.151875 152.375843 
L 233.151875 156.881092 
L 233.151875 161.386341 
L 233.151875 165.89159 
L 233.151875 170.39684 
L 233.151875 174.902089 
L 233.151875 179.407338 
L 233.151875 183.912587 
L 233.151875 188.417837 
L 233.151875 192.923086 
L 233.151875 197.428335 
L 233.151875 201.933584 
L 233.151875 206.438834 
L 233.151875 210.944083 
L 233.151875 215.449332 
L 233.151875 219.954582 
L 233.151875 224.459831 
L 233.151875 228.96508 
L 233.151875 233.470329 
L 233.151875 237.975579 
L 233.151875 242.480828 
L 233.151875 246.986077 
L 233.151875 251.491326 
L 233.151875 255.996576 
L 233.151875 260.501825 
L 233.151875 265.007074 
L 233.151875 269.512323 
L 233.151875 274.017573 
L 233.151875 278.522822 
L 233.151875 283.028071 
L 233.151875 287.533321 
L 233.151875 292.03857 
L 233.151875 296.543819 
L 233.151875 301.049068 
L 233.151875 305.554318 
L 233.151875 310.059567 
L 233.151875 314.564816 
L 233.151875 319.070065 
L 233.151875 323.575315 
L 233.151875 328.080564 
L 233.151875 332.585813 
L 233.151875 337.091062 
z
" clip-path="url(#p422aed0b21)" style="fill: #d3d3d3; stroke: #7f7f7f; stroke-width: 1.2"/>
   </g>
   <g id="FillBetweenPolyCollection_2">
    <defs>
     <path id="mba9b679ccd" d="M 234.975041 -200.642812 
L 233.151875 -200.642812 
L 233.151875 -203.198338 
L 233.151875 -205.753864 
L 233.151875 -208.30939 
L 233.151875 -210.864915 
L 233.151875 -213.420441 
L 233.151875 -215.975967 
L 233.151875 -218.531493 
L 233.151875 -221.087018 
L 233.151875 -223.642544 
L 233.151875 -226.19807 
L 233.151875 -228.753596 
L 233.151875 -231.309121 
L 233.151875 -233.864647 
L 233.151875 -236.420173 
L 233.151875 -238.975698 
L 233.151875 -241.531224 
L 233.151875 -244.08675 
L 233.151875 -246.642276 
L 233.151875 -249.197801 
L 233.151875 -251.753327 
L 233.151875 -254.308853 
L 233.151875 -256.864379 
L 233.151875 -259.419904 
L 233.151875 -261.97543 
L 233.151875 -264.530956 
L 233.151875 -267.086482 
L 233.151875 -269.642007 
L 233.151875 -272.197533 
L 233.151875 -274.753059 
L 233.151875 -277.308584 
L 233.151875 -279.86411 
L 233.151875 -282.419636 
L 233.151875 -284.975162 
L 233.151875 -287.530687 
L 233.151875 -290.086213 
L 233.151875 -292.641739 
L 233.151875 -295.197265 
L 233.151875 -297.75279 
L 233.151875 -300.308316 
L 233.151875 -302.863842 
L 233.151875 -305.419367 
L 233.151875 -307.974893 
L 233.151875 -310.530419 
L 233.151875 -313.085945 
L 233.151875 -315.64147 
L 233.151875 -318.196996 
L 233.151875 -320.752522 
L 233.151875 -323.308048 
L 233.151875 -325.863573 
L 233.151875 -328.419099 
L 233.151875 -330.974625 
L 233.151875 -333.530151 
L 233.151875 -336.085676 
L 233.151875 -338.641202 
L 233.151875 -341.196728 
L 233.151875 -343.752253 
L 233.151875 -346.307779 
L 233.151875 -348.863305 
L 233.151875 -351.418831 
L 233.151875 -353.974356 
L 233.151875 -356.529882 
L 233.151875 -359.085408 
L 233.151875 -361.640934 
L 233.151875 -364.196459 
L 233.151875 -366.751985 
L 233.151875 -369.307511 
L 233.151875 -371.863037 
L 233.151875 -374.418562 
L 233.151875 -376.974088 
L 233.151875 -379.529614 
L 233.151875 -382.085139 
L 233.151875 -384.640665 
L 233.151875 -387.196191 
L 233.151875 -389.751717 
L 233.151875 -392.307242 
L 233.151875 -394.862768 
L 233.151875 -397.418294 
L 233.151875 -399.97382 
L 233.151875 -402.529345 
L 233.151875 -405.084871 
L 233.151875 -407.640397 
L 233.151875 -410.195922 
L 233.151875 -412.751448 
L 233.151875 -415.306974 
L 233.151875 -417.8625 
L 233.151875 -420.418025 
L 233.151875 -422.973551 
L 233.151875 -425.529077 
L 233.151875 -428.084603 
L 233.151875 -430.640128 
L 233.151875 -433.195654 
L 233.151875 -435.75118 
L 233.151875 -438.306706 
L 233.151875 -440.862231 
L 233.151875 -443.417757 
L 233.151875 -445.973283 
L 233.151875 -448.528808 
L 233.151875 -451.084334 
L 233.151875 -453.63986 
L 234.963478 -453.63986 
L 234.963478 -453.63986 
L 234.866352 -451.084334 
L 234.605116 -448.528808 
L 234.255143 -445.973283 
L 233.902049 -443.417757 
L 233.608732 -440.862231 
L 233.401068 -438.306706 
L 233.273614 -435.75118 
L 233.205142 -433.195654 
L 233.17275 -430.640128 
L 233.159202 -428.084603 
L 233.154178 -425.529077 
L 233.152524 -422.973551 
L 233.152039 -420.418025 
L 233.151912 -417.8625 
L 233.151882 -415.306974 
L 233.151876 -412.751448 
L 233.151875 -410.195922 
L 233.151875 -407.640397 
L 233.151875 -405.084871 
L 233.151875 -402.529345 
L 233.151875 -399.97382 
L 233.151875 -397.418294 
L 233.151875 -394.862768 
L 233.151875 -392.307242 
L 233.151875 -389.751717 
L 233.151875 -387.196191 
L 233.151875 -384.640665 
L 233.151875 -382.085139 
L 233.151875 -379.529614 
L 233.151875 -376.974088 
L 233.151875 -374.418562 
L 233.151875 -371.863037 
L 233.151875 -369.307511 
L 233.151875 -366.751985 
L 233.151877 -364.196459 
L 233.151884 -361.640934 
L 233.151924 -359.085408 
L 233.152102 -356.529882 
L 233.152817 -353.974356 
L 233.155384 -351.418831 
L 233.163611 -348.863305 
L 233.187097 -346.307779 
L 233.24675 -343.752253 
L 233.38131 -341.196728 
L 233.650267 -338.641202 
L 234.125426 -336.085676 
L 234.865738 -333.530151 
L 235.882966 -330.974625 
L 237.125498 -328.419099 
L 238.516181 -325.863573 
L 240.054827 -323.308048 
L 241.936877 -320.752522 
L 244.58653 -318.196996 
L 248.516775 -315.64147 
L 254.037402 -313.085945 
L 260.982002 -310.530419 
L 268.696491 -307.974893 
L 276.422293 -305.419367 
L 283.934124 -302.863842 
L 292.024008 -300.308316 
L 302.386056 -297.75279 
L 316.75615 -295.197265 
L 335.659449 -292.641739 
L 357.486395 -290.086213 
L 378.554515 -287.530687 
L 394.291862 -284.975162 
L 401.010966 -282.419636 
L 397.377055 -279.86411 
L 384.85877 -277.308584 
L 367.044051 -274.753059 
L 348.295482 -272.197533 
L 332.431483 -269.642007 
L 321.883549 -267.086482 
L 317.37088 -264.530956 
L 317.921931 -261.97543 
L 321.168209 -259.419904 
L 323.99033 -256.864379 
L 323.505323 -254.308853 
L 318.071822 -251.753327 
L 307.808108 -249.197801 
L 294.336963 -246.642276 
L 279.94788 -244.08675 
L 266.689716 -241.531224 
L 255.83121 -238.975698 
L 247.791681 -236.420173 
L 242.366357 -233.864647 
L 239.018167 -231.309121 
L 237.110566 -228.753596 
L 236.061601 -226.19807 
L 235.435352 -223.642544 
L 234.978036 -221.087018 
L 234.600336 -218.531493 
L 234.319315 -215.975967 
L 234.186724 -213.420441 
L 234.230248 -210.864915 
L 234.422618 -208.30939 
L 234.681779 -205.753864 
L 234.897807 -203.198338 
L 234.975041 -200.642812 
z
" style="stroke: #7f7f7f; stroke-width: 1.2"/>
    </defs>
    <g clip-path="url(#p422aed0b21)">
     <use xlink:href="#mba9b679ccd" x="0" y="351.34575" style="fill: #d3d3d3; stroke: #7f7f7f; stroke-width: 1.2"/>
    </g>
   </g>
   <g id="patch_3">
    <path d="M 233.151875 337.091062 
L 233.151875 337.091062 
L 233.151875 337.091062 
L 233.151875 337.091062 
z
" clip-path="url(#p422aed0b21)" style="fill: #d3d3d3; stroke: #7f7f7f; stroke-width: 1.2; stroke-linejoin: miter"/>
   </g>
   <g id="patch_4">
    <path d="M 233.151875 337.091062 
L 233.151875 337.091062 
L 233.151875 337.091062 
L 233.151875 337.091062 
z
" clip-path="url(#p422aed0b21)" style="fill: #d3d3d3; stroke: #7f7f7f; stroke-width: 1.2; stroke-linejoin: miter"/>
   </g>
   <g id="matplotlib.axis_1"/>
   <g id="matplotlib.axis_2">
    <g id="ytick_1">
     <g id="line2d_1">
      <defs>
       <path id="m19a3722b92" d="M 0 0 
L -3.5 0 
" style="stroke: #000000; stroke-width: 0.8"/>
      </defs>
      <g>
       <use xlink:href="#m19a3722b92" x="48.506875" y="337.091062" style="stroke: #000000; stroke-width: 0.8"/>
      </g>
     </g>
     <g id="text_1">
      <!-- 0% -->
      <g transform="translate(22.47 341.650125) scale(0.12 -0.12)">
       <defs>
        <path id="DejaVuSans-30" d="M 2034 4250 
Q 1547 4250 1301 3770 
Q 1056 3291 1056 2328 
Q 1056 1369 1301 889 
Q 1547 409 2034 409 
Q 2525 409 2770 889 
Q 3016 1369 3016 2328 
Q 3016 3291 2770 3770 
Q 2525 4250 2034 4250 
z
M 2034 4750 
Q 2819 4750 3233 4129 
Q 3647 3509 3647 2328 
Q 3647 1150 3233 529 
Q 2819 -91 2034 -91 
Q 1250 -91 836 529 
Q 422 1150 422 2328 
Q 422 3509 836 4129 
Q 1250 4750 2034 4750 
z
" transform="scale(0.015625)"/>
        <path id="DejaVuSans-25" d="M 4653 2053 
Q 4381 2053 4226 1822 
Q 4072 1591 4072 1178 
Q 4072 772 4226 539 
Q 4381 306 4653 306 
Q 4919 306 5073 539 
Q 5228 772 5228 1178 
Q 5228 1588 5073 1820 
Q 4919 2053 4653 2053 
z
M 4653 2450 
Q 5147 2450 5437 2106 
Q 5728 1763 5728 1178 
Q 5728 594 5436 251 
Q 5144 -91 4653 -91 
Q 4153 -91 3862 251 
Q 3572 594 3572 1178 
Q 3572 1766 3864 2108 
Q 4156 2450 4653 2450 
z
M 1428 4353 
Q 1159 4353 1004 4120 
Q 850 3888 850 3481 
Q 850 3069 1003 2837 
Q 1156 2606 1428 2606 
Q 1700 2606 1854 2837 
Q 2009 3069 2009 3481 
Q 2009 3884 1853 4118 
Q 1697 4353 1428 4353 
z
M 4250 4750 
L 4750 4750 
L 1831 -91 
L 1331 -91 
L 4250 4750 
z
M 1428 4750 
Q 1922 4750 2215 4408 
Q 2509 4066 2509 3481 
Q 2509 2891 2217 2550 
Q 1925 2209 1428 2209 
Q 931 2209 642 2551 
Q 353 2894 353 3481 
Q 353 4063 643 4406 
Q 934 4750 1428 4750 
z
" transform="scale(0.015625)"/>
       </defs>
       <use xlink:href="#DejaVuSans-30"/>
       <use xlink:href="#DejaVuSans-25" transform="translate(63.623047 0)"/>
      </g>
     </g>
    </g>
    <g id="ytick_2">
     <g id="line2d_2">
      <g>
       <use xlink:href="#m19a3722b92" x="48.506875" y="282.869062" style="stroke: #000000; stroke-width: 0.8"/>
      </g>
     </g>
     <g id="text_2">
      <!-- 20% -->
      <g transform="translate(14.835 287.428125) scale(0.12 -0.12)">
       <defs>
        <path id="DejaVuSans-32" d="M 1228 531 
L 3431 531 
L 3431 0 
L 469 0 
L 469 531 
Q 828 903 1448 1529 
Q 2069 2156 2228 2338 
Q 2531 2678 2651 2914 
Q 2772 3150 2772 3378 
Q 2772 3750 2511 3984 
Q 2250 4219 1831 4219 
Q 1534 4219 1204 4116 
Q 875 4013 500 3803 
L 500 4441 
Q 881 4594 1212 4672 
Q 1544 4750 1819 4750 
Q 2544 4750 2975 4387 
Q 3406 4025 3406 3419 
Q 3406 3131 3298 2873 
Q 3191 2616 2906 2266 
Q 2828 2175 2409 1742 
Q 1991 1309 1228 531 
z
" transform="scale(0.015625)"/>
       </defs>
       <use xlink:href="#DejaVuSans-32"/>
       <use xlink:href="#DejaVuSans-30" transform="translate(63.623047 0)"/>
       <use xlink:href="#DejaVuSans-25" transform="translate(127.246094 0)"/>
      </g>
     </g>
    </g>
    <g id="ytick_3">
     <g id="line2d_3">
      <g>
       <use xlink:href="#m19a3722b92" x="48.506875" y="228.647062" style="stroke: #000000; stroke-width: 0.8"/>
      </g>
     </g>
     <g id="text_3">
      <!-- 40% -->
      <g transform="translate(14.835 233.206125) scale(0.12 -0.12)">
       <defs>
        <path id="DejaVuSans-34" d="M 2419 4116 
L 825 1625 
L 2419 1625 
L 2419 4116 
z
M 2253 4666 
L 3047 4666 
L 3047 1625 
L 3713 1625 
L 3713 1100 
L 3047 1100 
L 3047 0 
L 2419 0 
L 2419 1100 
L 313 1100 
L 313 1709 
L 2253 4666 
z
" transform="scale(0.015625)"/>
       </defs>
       <use xlink:href="#DejaVuSans-34"/>
       <use xlink:href="#DejaVuSans-30" transform="translate(63.623047 0)"/>
       <use xlink:href="#DejaVuSans-25" transform="translate(127.246094 0)"/>
      </g>
     </g>
    </g>
    <g id="ytick_4">
     <g id="line2d_4">
      <g>
       <use xlink:href="#m19a3722b92" x="48.506875" y="174.425062" style="stroke: #000000; stroke-width: 0.8"/>
      </g>
     </g>
     <g id="text_4">
      <!-- 60% -->
      <g transform="translate(14.835 178.984125) scale(0.12 -0.12)">
       <defs>
        <path id="DejaVuSans-36" d="M 2113 2584 
Q 1688 2584 1439 2293 
Q 1191 2003 1191 1497 
Q 1191 994 1439 701 
Q 1688 409 2113 409 
Q 2538 409 2786 701 
Q 3034 994 3034 1497 
Q 3034 2003 2786 2293 
Q 2538 2584 2113 2584 
z
M 3366 4563 
L 3366 3988 
Q 3128 4100 2886 4159 
Q 2644 4219 2406 4219 
Q 1781 4219 1451 3797 
Q 1122 3375 1075 2522 
Q 1259 2794 1537 2939 
Q 1816 3084 2150 3084 
Q 2853 3084 3261 2657 
Q 3669 2231 3669 1497 
Q 3669 778 3244 343 
Q 2819 -91 2113 -91 
Q 1303 -91 875 529 
Q 447 1150 447 2328 
Q 447 3434 972 4092 
Q 1497 4750 2381 4750 
Q 2619 4750 2861 4703 
Q 3103 4656 3366 4563 
z
" transform="scale(0.015625)"/>
       </defs>
       <use xlink:href="#DejaVuSans-36"/>
       <use xlink:href="#DejaVuSans-30" transform="translate(63.623047 0)"/>
       <use xlink:href="#DejaVuSans-25" transform="translate(127.246094 0)"/>
      </g>
     </g>
    </g>
    <g id="ytick_5">
     <g id="line2d_5">
      <g>
       <use xlink:href="#m19a3722b92" x="48.506875" y="120.203062" style="stroke: #000000; stroke-width: 0.8"/>
      </g>
     </g>
     <g id="text_5">
      <!-- 80% -->
      <g transform="translate(14.835 124.762125) scale(0.12 -0.12)">
       <defs>
        <path id="DejaVuSans-38" d="M 2034 2216 
Q 1584 2216 1326 1975 
Q 1069 1734 1069 1313 
Q 1069 891 1326 650 
Q 1584 409 2034 409 
Q 2484 409 2743 651 
Q 3003 894 3003 1313 
Q 3003 1734 2745 1975 
Q 2488 2216 2034 2216 
z
M 1403 2484 
Q 997 2584 770 2862 
Q 544 3141 544 3541 
Q 544 4100 942 4425 
Q 1341 4750 2034 4750 
Q 2731 4750 3128 4425 
Q 3525 4100 3525 3541 
Q 3525 3141 3298 2862 
Q 3072 2584 2669 2484 
Q 3125 2378 3379 2068 
Q 3634 1759 3634 1313 
Q 3634 634 3220 271 
Q 2806 -91 2034 -91 
Q 1263 -91 848 271 
Q 434 634 434 1313 
Q 434 1759 690 2068 
Q 947 2378 1403 2484 
z
M 1172 3481 
Q 1172 3119 1398 2916 
Q 1625 2713 2034 2713 
Q 2441 2713 2670 2916 
Q 2900 3119 2900 3481 
Q 2900 3844 2670 4047 
Q 2441 4250 2034 4250 
Q 1625 4250 1398 4047 
Q 1172 3844 1172 3481 
z
" transform="scale(0.015625)"/>
       </defs>
       <use xlink:href="#DejaVuSans-38"/>
       <use xlink:href="#DejaVuSans-30" transform="translate(63.623047 0)"/>
       <use xlink:href="#DejaVuSans-25" transform="translate(127.246094 0)"/>
      </g>
     </g>
    </g>
    <g id="ytick_6">
     <g id="line2d_6">
      <g>
       <use xlink:href="#m19a3722b92" x="48.506875" y="65.981062" style="stroke: #000000; stroke-width: 0.8"/>
      </g>
     </g>
     <g id="text_6">
      <!-- 100% -->
      <g transform="translate(7.2 70.540125) scale(0.12 -0.12)">
       <defs>
        <path id="DejaVuSans-31" d="M 794 531 
L 1825 531 
L 1825 4091 
L 703 3866 
L 703 4441 
L 1819 4666 
L 2450 4666 
L 2450 531 
L 3481 531 
L 3481 0 
L 794 0 
L 794 531 
z
" transform="scale(0.015625)"/>
       </defs>
       <use xlink:href="#DejaVuSans-31"/>
       <use xlink:href="#DejaVuSans-30" transform="translate(63.623047 0)"/>
       <use xlink:href="#DejaVuSans-30" transform="translate(127.246094 0)"/>
       <use xlink:href="#DejaVuSans-25" transform="translate(190.869141 0)"/>
      </g>
     </g>
    </g>
    <g id="ytick_7">
     <g id="line2d_7">
      <g>
       <use xlink:href="#m19a3722b92" x="48.506875" y="11.759062" style="stroke: #000000; stroke-width: 0.8"/>
      </g>
     </g>
     <g id="text_7">
      <!-- 120% -->
      <g transform="translate(7.2 16.318125) scale(0.12 -0.12)">
       <use xlink:href="#DejaVuSans-31"/>
       <use xlink:href="#DejaVuSans-32" transform="translate(63.623047 0)"/>
       <use xlink:href="#DejaVuSans-30" transform="translate(127.246094 0)"/>
       <use xlink:href="#DejaVuSans-25" transform="translate(190.869141 0)"/>
      </g>
     </g>
    </g>
   </g>
   <g id="patch_5">
    <path d="M 48.506875 337.091062 
L 48.506875 11.759062 
" style="fill: none; stroke: #000000; stroke-width: 0.8; stroke-linejoin: miter; stroke-linecap: square"/>
   </g>
   <g id="patch_6">
    <path d="M 417.796875 337.091062 
L 417.796875 11.759062 
" style="fill: none; stroke: #000000; stroke-width: 0.8; stroke-linejoin: miter; stroke-linecap: square"/>
   </g>
   <g id="patch_7">
    <path d="M 48.506875 337.091062 
L 417.796875 337.091062 
" style="fill: none; stroke: #000000; stroke-width: 0.8; stroke-linejoin: miter; stroke-linecap: square"/>
   </g>
   <g id="patch_8">
    <path d="M 48.506875 11.759062 
L 417.796875 11.759062 
" style="fill: none; stroke: #000000; stroke-width: 0.8; stroke-linejoin: miter; stroke-linecap: square"/>
   </g>
   <g id="line2d_8">
    <defs>
     <path id="m5fb9845cbf" d="M 0 3 
C 0.795609 3 1.55874 2.683901 2.12132 2.12132 
C 2.683901 1.55874 3 0.795609 3 0 
C 3 -0.795609 2.683901 -1.55874 2.12132 -2.12132 
C 1.55874 -2.683901 0.795609 -3 0 -3 
C -0.795609 -3 -1.55874 -2.683901 -2.12132 -2.12132 
C -2.683901 -1.55874 -3 -0.795609 -3 0 
C -3 0.795609 -2.683901 1.55874 -2.12132 2.12132 
C -1.55874 2.683901 -0.795609 3 0 3 
z
" style="stroke: #000000"/>
    </defs>
    <g clip-path="url(#p422aed0b21)">
     <use xlink:href="#m5fb9845cbf" x="212.169489" y="88.573562" style="stroke: #000000"/>
    </g>
   </g>
   <g id="line2d_9">
    <g clip-path="url(#p422aed0b21)">
     <use xlink:href="#m5fb9845cbf" x="254.134261" y="71.874758" style="stroke: #000000"/>
    </g>
   </g>
   <g id="text_8">
    <g id="patch_9">
     <path d="M 65.292784 320.623699 
L 193.110597 320.623699 
Q 197.310597 320.623699 197.310597 316.423699 
L 197.310597 174.425062 
Q 197.310597 170.225062 193.110597 170.225062 
L 65.292784 170.225062 
Q 61.092784 170.225062 61.092784 174.425062 
L 61.092784 316.423699 
Q 61.092784 320.623699 65.292784 320.623699 
z
" style="fill: #ffffff; stroke: #000000; stroke-linejoin: miter"/>
    </g>
    <!-- $\mathbf{Data:}$ -->
    <g transform="translate(65.292784 182.403422) scale(0.105 -0.105)">
     <defs>
      <path id="DejaVuSans-Bold-44" d="M 1791 3756 
L 1791 909 
L 2222 909 
Q 2959 909 3348 1275 
Q 3738 1641 3738 2338 
Q 3738 3031 3350 3393 
Q 2963 3756 2222 3756 
L 1791 3756 
z
M 588 4666 
L 1856 4666 
Q 2919 4666 3439 4514 
Q 3959 4363 4331 4000 
Q 4659 3684 4818 3271 
Q 4978 2859 4978 2338 
Q 4978 1809 4818 1395 
Q 4659 981 4331 666 
Q 3956 303 3431 151 
Q 2906 0 1856 0 
L 588 0 
L 588 4666 
z
" transform="scale(0.015625)"/>
      <path id="DejaVuSans-Bold-61" d="M 2106 1575 
Q 1756 1575 1579 1456 
Q 1403 1338 1403 1106 
Q 1403 894 1545 773 
Q 1688 653 1941 653 
Q 2256 653 2472 879 
Q 2688 1106 2688 1447 
L 2688 1575 
L 2106 1575 
z
M 3816 1997 
L 3816 0 
L 2688 0 
L 2688 519 
Q 2463 200 2181 54 
Q 1900 -91 1497 -91 
Q 953 -91 614 226 
Q 275 544 275 1050 
Q 275 1666 698 1953 
Q 1122 2241 2028 2241 
L 2688 2241 
L 2688 2328 
Q 2688 2594 2478 2717 
Q 2269 2841 1825 2841 
Q 1466 2841 1156 2769 
Q 847 2697 581 2553 
L 581 3406 
Q 941 3494 1303 3539 
Q 1666 3584 2028 3584 
Q 2975 3584 3395 3211 
Q 3816 2838 3816 1997 
z
" transform="scale(0.015625)"/>
      <path id="DejaVuSans-Bold-74" d="M 1759 4494 
L 1759 3500 
L 2913 3500 
L 2913 2700 
L 1759 2700 
L 1759 1216 
Q 1759 972 1856 886 
Q 1953 800 2241 800 
L 2816 800 
L 2816 0 
L 1856 0 
Q 1194 0 917 276 
Q 641 553 641 1216 
L 641 2700 
L 84 2700 
L 84 3500 
L 641 3500 
L 641 4494 
L 1759 4494 
z
" transform="scale(0.015625)"/>
      <path id="DejaVuSans-Bold-3a" d="M 716 3500 
L 1844 3500 
L 1844 2291 
L 716 2291 
L 716 3500 
z
M 716 1209 
L 1844 1209 
L 1844 0 
L 716 0 
L 716 1209 
z
" transform="scale(0.015625)"/>
     </defs>
     <use xlink:href="#DejaVuSans-Bold-44" transform="translate(0 0.09375)"/>
     <use xlink:href="#DejaVuSans-Bold-61" transform="translate(83.007812 0.09375)"/>
     <use xlink:href="#DejaVuSans-Bold-74" transform="translate(150.488281 0.09375)"/>
     <use xlink:href="#DejaVuSans-Bold-61" transform="translate(198.291016 0.09375)"/>
     <use xlink:href="#DejaVuSans-Bold-3a" transform="translate(285.253906 0.09375)"/>
    </g>
    <!--  -->
    <g transform="translate(65.292784 185.783848) scale(0.105 -0.105)"/>
    <!--  -->
    <g transform="translate(65.292784 189.164273) scale(0.105 -0.105)"/>
    <!--  -->
    <g transform="translate(65.292784 192.544699) scale(0.105 -0.105)"/>
    <!--  All Experiments -->
    <g transform="translate(65.292784 195.925125) scale(0.105 -0.105)">
     <defs>
      <path id="DejaVuSans-20" transform="scale(0.015625)"/>
      <path id="DejaVuSans-41" d="M 2188 4044 
L 1331 1722 
L 3047 1722 
L 2188 4044 
z
M 1831 4666 
L 2547 4666 
L 4325 0 
L 3669 0 
L 3244 1197 
L 1141 1197 
L 716 0 
L 50 0 
L 1831 4666 
z
" transform="scale(0.015625)"/>
      <path id="DejaVuSans-6c" d="M 603 4863 
L 1178 4863 
L 1178 0 
L 603 0 
L 603 4863 
z
" transform="scale(0.015625)"/>
      <path id="DejaVuSans-45" d="M 628 4666 
L 3578 4666 
L 3578 4134 
L 1259 4134 
L 1259 2753 
L 3481 2753 
L 3481 2222 
L 1259 2222 
L 1259 531 
L 3634 531 
L 3634 0 
L 628 0 
L 628 4666 
z
" transform="scale(0.015625)"/>
      <path id="DejaVuSans-78" d="M 3513 3500 
L 2247 1797 
L 3578 0 
L 2900 0 
L 1881 1375 
L 863 0 
L 184 0 
L 1544 1831 
L 300 3500 
L 978 3500 
L 1906 2253 
L 2834 3500 
L 3513 3500 
z
" transform="scale(0.015625)"/>
      <path id="DejaVuSans-70" d="M 1159 525 
L 1159 -1331 
L 581 -1331 
L 581 3500 
L 1159 3500 
L 1159 2969 
Q 1341 3281 1617 3432 
Q 1894 3584 2278 3584 
Q 2916 3584 3314 3078 
Q 3713 2572 3713 1747 
Q 3713 922 3314 415 
Q 2916 -91 2278 -91 
Q 1894 -91 1617 61 
Q 1341 213 1159 525 
z
M 3116 1747 
Q 3116 2381 2855 2742 
Q 2594 3103 2138 3103 
Q 1681 3103 1420 2742 
Q 1159 2381 1159 1747 
Q 1159 1113 1420 752 
Q 1681 391 2138 391 
Q 2594 391 2855 752 
Q 3116 1113 3116 1747 
z
" transform="scale(0.015625)"/>
      <path id="DejaVuSans-65" d="M 3597 1894 
L 3597 1613 
L 953 1613 
Q 991 1019 1311 708 
Q 1631 397 2203 397 
Q 2534 397 2845 478 
Q 3156 559 3463 722 
L 3463 178 
Q 3153 47 2828 -22 
Q 2503 -91 2169 -91 
Q 1331 -91 842 396 
Q 353 884 353 1716 
Q 353 2575 817 3079 
Q 1281 3584 2069 3584 
Q 2775 3584 3186 3129 
Q 3597 2675 3597 1894 
z
M 3022 2063 
Q 3016 2534 2758 2815 
Q 2500 3097 2075 3097 
Q 1594 3097 1305 2825 
Q 1016 2553 972 2059 
L 3022 2063 
z
" transform="scale(0.015625)"/>
      <path id="DejaVuSans-72" d="M 2631 2963 
Q 2534 3019 2420 3045 
Q 2306 3072 2169 3072 
Q 1681 3072 1420 2755 
Q 1159 2438 1159 1844 
L 1159 0 
L 581 0 
L 581 3500 
L 1159 3500 
L 1159 2956 
Q 1341 3275 1631 3429 
Q 1922 3584 2338 3584 
Q 2397 3584 2469 3576 
Q 2541 3569 2628 3553 
L 2631 2963 
z
" transform="scale(0.015625)"/>
      <path id="DejaVuSans-69" d="M 603 3500 
L 1178 3500 
L 1178 0 
L 603 0 
L 603 3500 
z
M 603 4863 
L 1178 4863 
L 1178 4134 
L 603 4134 
L 603 4863 
z
" transform="scale(0.015625)"/>
      <path id="DejaVuSans-6d" d="M 3328 2828 
Q 3544 3216 3844 3400 
Q 4144 3584 4550 3584 
Q 5097 3584 5394 3201 
Q 5691 2819 5691 2113 
L 5691 0 
L 5113 0 
L 5113 2094 
Q 5113 2597 4934 2840 
Q 4756 3084 4391 3084 
Q 3944 3084 3684 2787 
Q 3425 2491 3425 1978 
L 3425 0 
L 2847 0 
L 2847 2094 
Q 2847 2600 2669 2842 
Q 2491 3084 2119 3084 
Q 1678 3084 1418 2786 
Q 1159 2488 1159 1978 
L 1159 0 
L 581 0 
L 581 3500 
L 1159 3500 
L 1159 2956 
Q 1356 3278 1631 3431 
Q 1906 3584 2284 3584 
Q 2666 3584 2933 3390 
Q 3200 3197 3328 2828 
z
" transform="scale(0.015625)"/>
      <path id="DejaVuSans-6e" d="M 3513 2113 
L 3513 0 
L 2938 0 
L 2938 2094 
Q 2938 2591 2744 2837 
Q 2550 3084 2163 3084 
Q 1697 3084 1428 2787 
Q 1159 2491 1159 1978 
L 1159 0 
L 581 0 
L 581 3500 
L 1159 3500 
L 1159 2956 
Q 1366 3272 1645 3428 
Q 1925 3584 2291 3584 
Q 2894 3584 3203 3211 
Q 3513 2838 3513 2113 
z
" transform="scale(0.015625)"/>
      <path id="DejaVuSans-74" d="M 1172 4494 
L 1172 3500 
L 2356 3500 
L 2356 3053 
L 1172 3053 
L 1172 1153 
Q 1172 725 1289 603 
Q 1406 481 1766 481 
L 2356 481 
L 2356 0 
L 1766 0 
Q 1100 0 847 248 
Q 594 497 594 1153 
L 594 3053 
L 172 3053 
L 172 3500 
L 594 3500 
L 594 4494 
L 1172 4494 
z
" transform="scale(0.015625)"/>
      <path id="DejaVuSans-73" d="M 2834 3397 
L 2834 2853 
Q 2591 2978 2328 3040 
Q 2066 3103 1784 3103 
Q 1356 3103 1142 2972 
Q 928 2841 928 2578 
Q 928 2378 1081 2264 
Q 1234 2150 1697 2047 
L 1894 2003 
Q 2506 1872 2764 1633 
Q 3022 1394 3022 966 
Q 3022 478 2636 193 
Q 2250 -91 1575 -91 
Q 1294 -91 989 -36 
Q 684 19 347 128 
L 347 722 
Q 666 556 975 473 
Q 1284 391 1588 391 
Q 1994 391 2212 530 
Q 2431 669 2431 922 
Q 2431 1156 2273 1281 
Q 2116 1406 1581 1522 
L 1381 1569 
Q 847 1681 609 1914 
Q 372 2147 372 2553 
Q 372 3047 722 3315 
Q 1072 3584 1716 3584 
Q 2034 3584 2315 3537 
Q 2597 3491 2834 3397 
z
" transform="scale(0.015625)"/>
     </defs>
     <use xlink:href="#DejaVuSans-20"/>
     <use xlink:href="#DejaVuSans-41" transform="translate(31.787109 0)"/>
     <use xlink:href="#DejaVuSans-6c" transform="translate(100.195312 0)"/>
     <use xlink:href="#DejaVuSans-6c" transform="translate(127.978516 0)"/>
     <use xlink:href="#DejaVuSans-20" transform="translate(155.761719 0)"/>
     <use xlink:href="#DejaVuSans-45" transform="translate(187.548828 0)"/>
     <use xlink:href="#DejaVuSans-78" transform="translate(250.732422 0)"/>
     <use xlink:href="#DejaVuSans-70" transform="translate(309.912109 0)"/>
     <use xlink:href="#DejaVuSans-65" transform="translate(373.388672 0)"/>
     <use xlink:href="#DejaVuSans-72" transform="translate(434.912109 0)"/>
     <use xlink:href="#DejaVuSans-69" transform="translate(476.025391 0)"/>
     <use xlink:href="#DejaVuSans-6d" transform="translate(503.808594 0)"/>
     <use xlink:href="#DejaVuSans-65" transform="translate(601.220703 0)"/>
     <use xlink:href="#DejaVuSans-6e" transform="translate(662.744141 0)"/>
     <use xlink:href="#DejaVuSans-74" transform="translate(726.123047 0)"/>
     <use xlink:href="#DejaVuSans-73" transform="translate(765.332031 0)"/>
    </g>
    <!--  -->
    <g transform="translate(65.292784 199.305551) scale(0.105 -0.105)"/>
    <!--  -->
    <g transform="translate(65.292784 202.685977) scale(0.105 -0.105)"/>
    <!--  -->
    <g transform="translate(65.292784 206.066402) scale(0.105 -0.105)"/>
    <!--  -->
    <g transform="translate(65.292784 209.446828) scale(0.105 -0.105)"/>
    <!--  -->
    <g transform="translate(65.292784 212.827254) scale(0.105 -0.105)"/>
    <!--  -->
    <g transform="translate(65.292784 216.20768) scale(0.105 -0.105)"/>
    <!--  -->
    <g transform="translate(65.292784 219.588105) scale(0.105 -0.105)"/>
    <!--  -->
    <g transform="translate(65.292784 222.968531) scale(0.105 -0.105)"/>
    <!-- $\mathbf{N:}$ 6400 -->
    <g transform="translate(65.292784 226.348957) scale(0.105 -0.105)">
     <defs>
      <path id="DejaVuSans-Bold-4e" d="M 588 4666 
L 1931 4666 
L 3628 1466 
L 3628 4666 
L 4769 4666 
L 4769 0 
L 3425 0 
L 1728 3200 
L 1728 0 
L 588 0 
L 588 4666 
z
" transform="scale(0.015625)"/>
     </defs>
     <use xlink:href="#DejaVuSans-Bold-4e" transform="translate(0 0.78125)"/>
     <use xlink:href="#DejaVuSans-Bold-3a" transform="translate(103.173828 0.78125)"/>
     <use xlink:href="#DejaVuSans-20" transform="translate(162.646484 0.78125)"/>
     <use xlink:href="#DejaVuSans-36" transform="translate(194.433594 0.78125)"/>
     <use xlink:href="#DejaVuSans-34" transform="translate(258.056641 0.78125)"/>
     <use xlink:href="#DejaVuSans-30" transform="translate(321.679688 0.78125)"/>
     <use xlink:href="#DejaVuSans-30" transform="translate(385.302734 0.78125)"/>
    </g>
    <!--  -->
    <g transform="translate(65.292784 229.729383) scale(0.105 -0.105)"/>
    <!--  -->
    <g transform="translate(65.292784 233.109809) scale(0.105 -0.105)"/>
    <!--  -->
    <g transform="translate(65.292784 236.490234) scale(0.105 -0.105)"/>
    <!--  -->
    <g transform="translate(65.292784 239.87066) scale(0.105 -0.105)"/>
    <!-- $\mathbf{Median:}$ 91.7% -->
    <g transform="translate(65.292784 243.251086) scale(0.105 -0.105)">
     <defs>
      <path id="DejaVuSans-Bold-4d" d="M 588 4666 
L 2119 4666 
L 3181 2169 
L 4250 4666 
L 5778 4666 
L 5778 0 
L 4641 0 
L 4641 3413 
L 3566 897 
L 2803 897 
L 1728 3413 
L 1728 0 
L 588 0 
L 588 4666 
z
" transform="scale(0.015625)"/>
      <path id="DejaVuSans-Bold-65" d="M 4031 1759 
L 4031 1441 
L 1416 1441 
Q 1456 1047 1700 850 
Q 1944 653 2381 653 
Q 2734 653 3104 758 
Q 3475 863 3866 1075 
L 3866 213 
Q 3469 63 3072 -14 
Q 2675 -91 2278 -91 
Q 1328 -91 801 392 
Q 275 875 275 1747 
Q 275 2603 792 3093 
Q 1309 3584 2216 3584 
Q 3041 3584 3536 3087 
Q 4031 2591 4031 1759 
z
M 2881 2131 
Q 2881 2450 2695 2645 
Q 2509 2841 2209 2841 
Q 1884 2841 1681 2658 
Q 1478 2475 1428 2131 
L 2881 2131 
z
" transform="scale(0.015625)"/>
      <path id="DejaVuSans-Bold-64" d="M 2919 2988 
L 2919 4863 
L 4044 4863 
L 4044 0 
L 2919 0 
L 2919 506 
Q 2688 197 2409 53 
Q 2131 -91 1766 -91 
Q 1119 -91 703 423 
Q 288 938 288 1747 
Q 288 2556 703 3070 
Q 1119 3584 1766 3584 
Q 2128 3584 2408 3439 
Q 2688 3294 2919 2988 
z
M 2181 722 
Q 2541 722 2730 984 
Q 2919 1247 2919 1747 
Q 2919 2247 2730 2509 
Q 2541 2772 2181 2772 
Q 1825 2772 1636 2509 
Q 1447 2247 1447 1747 
Q 1447 1247 1636 984 
Q 1825 722 2181 722 
z
" transform="scale(0.015625)"/>
      <path id="DejaVuSans-Bold-69" d="M 538 3500 
L 1656 3500 
L 1656 0 
L 538 0 
L 538 3500 
z
M 538 4863 
L 1656 4863 
L 1656 3950 
L 538 3950 
L 538 4863 
z
" transform="scale(0.015625)"/>
      <path id="DejaVuSans-Bold-6e" d="M 4056 2131 
L 4056 0 
L 2931 0 
L 2931 347 
L 2931 1631 
Q 2931 2084 2911 2256 
Q 2891 2428 2841 2509 
Q 2775 2619 2662 2680 
Q 2550 2741 2406 2741 
Q 2056 2741 1856 2470 
Q 1656 2200 1656 1722 
L 1656 0 
L 538 0 
L 538 3500 
L 1656 3500 
L 1656 2988 
Q 1909 3294 2193 3439 
Q 2478 3584 2822 3584 
Q 3428 3584 3742 3212 
Q 4056 2841 4056 2131 
z
" transform="scale(0.015625)"/>
      <path id="DejaVuSans-39" d="M 703 97 
L 703 672 
Q 941 559 1184 500 
Q 1428 441 1663 441 
Q 2288 441 2617 861 
Q 2947 1281 2994 2138 
Q 2813 1869 2534 1725 
Q 2256 1581 1919 1581 
Q 1219 1581 811 2004 
Q 403 2428 403 3163 
Q 403 3881 828 4315 
Q 1253 4750 1959 4750 
Q 2769 4750 3195 4129 
Q 3622 3509 3622 2328 
Q 3622 1225 3098 567 
Q 2575 -91 1691 -91 
Q 1453 -91 1209 -44 
Q 966 3 703 97 
z
M 1959 2075 
Q 2384 2075 2632 2365 
Q 2881 2656 2881 3163 
Q 2881 3666 2632 3958 
Q 2384 4250 1959 4250 
Q 1534 4250 1286 3958 
Q 1038 3666 1038 3163 
Q 1038 2656 1286 2365 
Q 1534 2075 1959 2075 
z
" transform="scale(0.015625)"/>
      <path id="DejaVuSans-2e" d="M 684 794 
L 1344 794 
L 1344 0 
L 684 0 
L 684 794 
z
" transform="scale(0.015625)"/>
      <path id="DejaVuSans-37" d="M 525 4666 
L 3525 4666 
L 3525 4397 
L 1831 0 
L 1172 0 
L 2766 4134 
L 525 4134 
L 525 4666 
z
" transform="scale(0.015625)"/>
     </defs>
     <use xlink:href="#DejaVuSans-Bold-4d" transform="translate(0 0.015625)"/>
     <use xlink:href="#DejaVuSans-Bold-65" transform="translate(99.511719 0.015625)"/>
     <use xlink:href="#DejaVuSans-Bold-64" transform="translate(167.333984 0.015625)"/>
     <use xlink:href="#DejaVuSans-Bold-69" transform="translate(238.916016 0.015625)"/>
     <use xlink:href="#DejaVuSans-Bold-61" transform="translate(273.193359 0.015625)"/>
     <use xlink:href="#DejaVuSans-Bold-6e" transform="translate(340.673828 0.015625)"/>
     <use xlink:href="#DejaVuSans-Bold-3a" transform="translate(431.347656 0.015625)"/>
     <use xlink:href="#DejaVuSans-20" transform="translate(490.820312 0.015625)"/>
     <use xlink:href="#DejaVuSans-39" transform="translate(522.607422 0.015625)"/>
     <use xlink:href="#DejaVuSans-31" transform="translate(586.230469 0.015625)"/>
     <use xlink:href="#DejaVuSans-2e" transform="translate(649.853516 0.015625)"/>
     <use xlink:href="#DejaVuSans-37" transform="translate(673.890625 0.015625)"/>
     <use xlink:href="#DejaVuSans-25" transform="translate(737.513672 0.015625)"/>
    </g>
    <!--  -->
    <g transform="translate(65.292784 246.631512) scale(0.105 -0.105)"/>
    <!--  -->
    <g transform="translate(65.292784 250.011937) scale(0.105 -0.105)"/>
    <!--  -->
    <g transform="translate(65.292784 253.392363) scale(0.105 -0.105)"/>
    <!--  -->
    <g transform="translate(65.292784 256.772789) scale(0.105 -0.105)"/>
    <!-- $\mathbf{Outliers:}$ -->
    <g transform="translate(65.292784 260.153215) scale(0.105 -0.105)">
     <defs>
      <path id="DejaVuSans-Bold-4f" d="M 2719 3878 
Q 2169 3878 1866 3472 
Q 1563 3066 1563 2328 
Q 1563 1594 1866 1187 
Q 2169 781 2719 781 
Q 3272 781 3575 1187 
Q 3878 1594 3878 2328 
Q 3878 3066 3575 3472 
Q 3272 3878 2719 3878 
z
M 2719 4750 
Q 3844 4750 4481 4106 
Q 5119 3463 5119 2328 
Q 5119 1197 4481 553 
Q 3844 -91 2719 -91 
Q 1597 -91 958 553 
Q 319 1197 319 2328 
Q 319 3463 958 4106 
Q 1597 4750 2719 4750 
z
" transform="scale(0.015625)"/>
      <path id="DejaVuSans-Bold-75" d="M 500 1363 
L 500 3500 
L 1625 3500 
L 1625 3150 
Q 1625 2866 1622 2436 
Q 1619 2006 1619 1863 
Q 1619 1441 1641 1255 
Q 1663 1069 1716 984 
Q 1784 875 1895 815 
Q 2006 756 2150 756 
Q 2500 756 2700 1025 
Q 2900 1294 2900 1772 
L 2900 3500 
L 4019 3500 
L 4019 0 
L 2900 0 
L 2900 506 
Q 2647 200 2364 54 
Q 2081 -91 1741 -91 
Q 1134 -91 817 281 
Q 500 653 500 1363 
z
" transform="scale(0.015625)"/>
      <path id="DejaVuSans-Bold-6c" d="M 538 4863 
L 1656 4863 
L 1656 0 
L 538 0 
L 538 4863 
z
" transform="scale(0.015625)"/>
      <path id="DejaVuSans-Bold-72" d="M 3138 2547 
Q 2991 2616 2845 2648 
Q 2700 2681 2553 2681 
Q 2122 2681 1889 2404 
Q 1656 2128 1656 1613 
L 1656 0 
L 538 0 
L 538 3500 
L 1656 3500 
L 1656 2925 
Q 1872 3269 2151 3426 
Q 2431 3584 2822 3584 
Q 2878 3584 2943 3579 
Q 3009 3575 3134 3559 
L 3138 2547 
z
" transform="scale(0.015625)"/>
      <path id="DejaVuSans-Bold-73" d="M 3272 3391 
L 3272 2541 
Q 2913 2691 2578 2766 
Q 2244 2841 1947 2841 
Q 1628 2841 1473 2761 
Q 1319 2681 1319 2516 
Q 1319 2381 1436 2309 
Q 1553 2238 1856 2203 
L 2053 2175 
Q 2913 2066 3209 1816 
Q 3506 1566 3506 1031 
Q 3506 472 3093 190 
Q 2681 -91 1863 -91 
Q 1516 -91 1145 -36 
Q 775 19 384 128 
L 384 978 
Q 719 816 1070 734 
Q 1422 653 1784 653 
Q 2113 653 2278 743 
Q 2444 834 2444 1013 
Q 2444 1163 2330 1236 
Q 2216 1309 1875 1350 
L 1678 1375 
Q 931 1469 631 1722 
Q 331 1975 331 2491 
Q 331 3047 712 3315 
Q 1094 3584 1881 3584 
Q 2191 3584 2531 3537 
Q 2872 3491 3272 3391 
z
" transform="scale(0.015625)"/>
     </defs>
     <use xlink:href="#DejaVuSans-Bold-4f" transform="translate(0 0.015625)"/>
     <use xlink:href="#DejaVuSans-Bold-75" transform="translate(85.009766 0.015625)"/>
     <use xlink:href="#DejaVuSans-Bold-74" transform="translate(156.201172 0.015625)"/>
     <use xlink:href="#DejaVuSans-Bold-6c" transform="translate(204.003906 0.015625)"/>
     <use xlink:href="#DejaVuSans-Bold-69" transform="translate(238.28125 0.015625)"/>
     <use xlink:href="#DejaVuSans-Bold-65" transform="translate(272.558594 0.015625)"/>
     <use xlink:href="#DejaVuSans-Bold-72" transform="translate(340.380859 0.015625)"/>
     <use xlink:href="#DejaVuSans-Bold-73" transform="translate(389.697266 0.015625)"/>
     <use xlink:href="#DejaVuSans-Bold-3a" transform="translate(468.701172 0.015625)"/>
    </g>
    <!--  -->
    <g transform="translate(65.292784 263.533641) scale(0.105 -0.105)"/>
    <!--  -->
    <g transform="translate(65.292784 266.914066) scale(0.105 -0.105)"/>
    <!--  -->
    <g transform="translate(65.292784 270.294492) scale(0.105 -0.105)"/>
    <!--   (&gt;99.5 percentile, -->
    <g transform="translate(65.292784 273.674918) scale(0.105 -0.105)">
     <defs>
      <path id="DejaVuSans-28" d="M 1984 4856 
Q 1566 4138 1362 3434 
Q 1159 2731 1159 2009 
Q 1159 1288 1364 580 
Q 1569 -128 1984 -844 
L 1484 -844 
Q 1016 -109 783 600 
Q 550 1309 550 2009 
Q 550 2706 781 3412 
Q 1013 4119 1484 4856 
L 1984 4856 
z
" transform="scale(0.015625)"/>
      <path id="DejaVuSans-3e" d="M 678 3150 
L 678 3719 
L 4684 2266 
L 4684 1747 
L 678 294 
L 678 863 
L 3897 2003 
L 678 3150 
z
" transform="scale(0.015625)"/>
      <path id="DejaVuSans-35" d="M 691 4666 
L 3169 4666 
L 3169 4134 
L 1269 4134 
L 1269 2991 
Q 1406 3038 1543 3061 
Q 1681 3084 1819 3084 
Q 2600 3084 3056 2656 
Q 3513 2228 3513 1497 
Q 3513 744 3044 326 
Q 2575 -91 1722 -91 
Q 1428 -91 1123 -41 
Q 819 9 494 109 
L 494 744 
Q 775 591 1075 516 
Q 1375 441 1709 441 
Q 2250 441 2565 725 
Q 2881 1009 2881 1497 
Q 2881 1984 2565 2268 
Q 2250 2553 1709 2553 
Q 1456 2553 1204 2497 
Q 953 2441 691 2322 
L 691 4666 
z
" transform="scale(0.015625)"/>
      <path id="DejaVuSans-63" d="M 3122 3366 
L 3122 2828 
Q 2878 2963 2633 3030 
Q 2388 3097 2138 3097 
Q 1578 3097 1268 2742 
Q 959 2388 959 1747 
Q 959 1106 1268 751 
Q 1578 397 2138 397 
Q 2388 397 2633 464 
Q 2878 531 3122 666 
L 3122 134 
Q 2881 22 2623 -34 
Q 2366 -91 2075 -91 
Q 1284 -91 818 406 
Q 353 903 353 1747 
Q 353 2603 823 3093 
Q 1294 3584 2113 3584 
Q 2378 3584 2631 3529 
Q 2884 3475 3122 3366 
z
" transform="scale(0.015625)"/>
      <path id="DejaVuSans-2c" d="M 750 794 
L 1409 794 
L 1409 256 
L 897 -744 
L 494 -744 
L 750 256 
L 750 794 
z
" transform="scale(0.015625)"/>
     </defs>
     <use xlink:href="#DejaVuSans-20"/>
     <use xlink:href="#DejaVuSans-20" transform="translate(31.787109 0)"/>
     <use xlink:href="#DejaVuSans-28" transform="translate(63.574219 0)"/>
     <use xlink:href="#DejaVuSans-3e" transform="translate(102.587891 0)"/>
     <use xlink:href="#DejaVuSans-39" transform="translate(186.376953 0)"/>
     <use xlink:href="#DejaVuSans-39" transform="translate(250 0)"/>
     <use xlink:href="#DejaVuSans-2e" transform="translate(313.623047 0)"/>
     <use xlink:href="#DejaVuSans-35" transform="translate(345.410156 0)"/>
     <use xlink:href="#DejaVuSans-20" transform="translate(409.033203 0)"/>
     <use xlink:href="#DejaVuSans-70" transform="translate(440.820312 0)"/>
     <use xlink:href="#DejaVuSans-65" transform="translate(504.296875 0)"/>
     <use xlink:href="#DejaVuSans-72" transform="translate(565.820312 0)"/>
     <use xlink:href="#DejaVuSans-63" transform="translate(604.683594 0)"/>
     <use xlink:href="#DejaVuSans-65" transform="translate(659.664062 0)"/>
     <use xlink:href="#DejaVuSans-6e" transform="translate(721.1875 0)"/>
     <use xlink:href="#DejaVuSans-74" transform="translate(784.566406 0)"/>
     <use xlink:href="#DejaVuSans-69" transform="translate(823.775391 0)"/>
     <use xlink:href="#DejaVuSans-6c" transform="translate(851.558594 0)"/>
     <use xlink:href="#DejaVuSans-65" transform="translate(879.341797 0)"/>
     <use xlink:href="#DejaVuSans-2c" transform="translate(940.865234 0)"/>
    </g>
    <!--  -->
    <g transform="translate(65.292784 277.055344) scale(0.105 -0.105)"/>
    <!--  -->
    <g transform="translate(65.292784 280.43577) scale(0.105 -0.105)"/>
    <!--  -->
    <g transform="translate(65.292784 283.816195) scale(0.105 -0.105)"/>
    <!--   excluded from density) -->
    <g transform="translate(65.292784 287.196621) scale(0.105 -0.105)">
     <defs>
      <path id="DejaVuSans-75" d="M 544 1381 
L 544 3500 
L 1119 3500 
L 1119 1403 
Q 1119 906 1312 657 
Q 1506 409 1894 409 
Q 2359 409 2629 706 
Q 2900 1003 2900 1516 
L 2900 3500 
L 3475 3500 
L 3475 0 
L 2900 0 
L 2900 538 
Q 2691 219 2414 64 
Q 2138 -91 1772 -91 
Q 1169 -91 856 284 
Q 544 659 544 1381 
z
M 1991 3584 
L 1991 3584 
z
" transform="scale(0.015625)"/>
      <path id="DejaVuSans-64" d="M 2906 2969 
L 2906 4863 
L 3481 4863 
L 3481 0 
L 2906 0 
L 2906 525 
Q 2725 213 2448 61 
Q 2172 -91 1784 -91 
Q 1150 -91 751 415 
Q 353 922 353 1747 
Q 353 2572 751 3078 
Q 1150 3584 1784 3584 
Q 2172 3584 2448 3432 
Q 2725 3281 2906 2969 
z
M 947 1747 
Q 947 1113 1208 752 
Q 1469 391 1925 391 
Q 2381 391 2643 752 
Q 2906 1113 2906 1747 
Q 2906 2381 2643 2742 
Q 2381 3103 1925 3103 
Q 1469 3103 1208 2742 
Q 947 2381 947 1747 
z
" transform="scale(0.015625)"/>
      <path id="DejaVuSans-66" d="M 2375 4863 
L 2375 4384 
L 1825 4384 
Q 1516 4384 1395 4259 
Q 1275 4134 1275 3809 
L 1275 3500 
L 2222 3500 
L 2222 3053 
L 1275 3053 
L 1275 0 
L 697 0 
L 697 3053 
L 147 3053 
L 147 3500 
L 697 3500 
L 697 3744 
Q 697 4328 969 4595 
Q 1241 4863 1831 4863 
L 2375 4863 
z
" transform="scale(0.015625)"/>
      <path id="DejaVuSans-6f" d="M 1959 3097 
Q 1497 3097 1228 2736 
Q 959 2375 959 1747 
Q 959 1119 1226 758 
Q 1494 397 1959 397 
Q 2419 397 2687 759 
Q 2956 1122 2956 1747 
Q 2956 2369 2687 2733 
Q 2419 3097 1959 3097 
z
M 1959 3584 
Q 2709 3584 3137 3096 
Q 3566 2609 3566 1747 
Q 3566 888 3137 398 
Q 2709 -91 1959 -91 
Q 1206 -91 779 398 
Q 353 888 353 1747 
Q 353 2609 779 3096 
Q 1206 3584 1959 3584 
z
" transform="scale(0.015625)"/>
      <path id="DejaVuSans-79" d="M 2059 -325 
Q 1816 -950 1584 -1140 
Q 1353 -1331 966 -1331 
L 506 -1331 
L 506 -850 
L 844 -850 
Q 1081 -850 1212 -737 
Q 1344 -625 1503 -206 
L 1606 56 
L 191 3500 
L 800 3500 
L 1894 763 
L 2988 3500 
L 3597 3500 
L 2059 -325 
z
" transform="scale(0.015625)"/>
      <path id="DejaVuSans-29" d="M 513 4856 
L 1013 4856 
Q 1481 4119 1714 3412 
Q 1947 2706 1947 2009 
Q 1947 1309 1714 600 
Q 1481 -109 1013 -844 
L 513 -844 
Q 928 -128 1133 580 
Q 1338 1288 1338 2009 
Q 1338 2731 1133 3434 
Q 928 4138 513 4856 
z
" transform="scale(0.015625)"/>
     </defs>
     <use xlink:href="#DejaVuSans-20"/>
     <use xlink:href="#DejaVuSans-20" transform="translate(31.787109 0)"/>
     <use xlink:href="#DejaVuSans-65" transform="translate(63.574219 0)"/>
     <use xlink:href="#DejaVuSans-78" transform="translate(123.347656 0)"/>
     <use xlink:href="#DejaVuSans-63" transform="translate(180.777344 0)"/>
     <use xlink:href="#DejaVuSans-6c" transform="translate(235.757812 0)"/>
     <use xlink:href="#DejaVuSans-75" transform="translate(263.541016 0)"/>
     <use xlink:href="#DejaVuSans-64" transform="translate(326.919922 0)"/>
     <use xlink:href="#DejaVuSans-65" transform="translate(390.396484 0)"/>
     <use xlink:href="#DejaVuSans-64" transform="translate(451.919922 0)"/>
     <use xlink:href="#DejaVuSans-20" transform="translate(515.396484 0)"/>
     <use xlink:href="#DejaVuSans-66" transform="translate(547.183594 0)"/>
     <use xlink:href="#DejaVuSans-72" transform="translate(582.388672 0)"/>
     <use xlink:href="#DejaVuSans-6f" transform="translate(621.251953 0)"/>
     <use xlink:href="#DejaVuSans-6d" transform="translate(682.433594 0)"/>
     <use xlink:href="#DejaVuSans-20" transform="translate(779.845703 0)"/>
     <use xlink:href="#DejaVuSans-64" transform="translate(811.632812 0)"/>
     <use xlink:href="#DejaVuSans-65" transform="translate(875.109375 0)"/>
     <use xlink:href="#DejaVuSans-6e" transform="translate(936.632812 0)"/>
     <use xlink:href="#DejaVuSans-73" transform="translate(1000.011719 0)"/>
     <use xlink:href="#DejaVuSans-69" transform="translate(1052.111328 0)"/>
     <use xlink:href="#DejaVuSans-74" transform="translate(1079.894531 0)"/>
     <use xlink:href="#DejaVuSans-79" transform="translate(1119.103516 0)"/>
     <use xlink:href="#DejaVuSans-29" transform="translate(1178.283203 0)"/>
    </g>
    <!--  -->
    <g transform="translate(65.292784 290.577047) scale(0.105 -0.105)"/>
    <!--  -->
    <g transform="translate(65.292784 293.957473) scale(0.105 -0.105)"/>
    <!--  -->
    <g transform="translate(65.292784 297.337898) scale(0.105 -0.105)"/>
    <!--   32 -->
    <g transform="translate(65.292784 300.718324) scale(0.105 -0.105)">
     <defs>
      <path id="DejaVuSans-33" d="M 2597 2516 
Q 3050 2419 3304 2112 
Q 3559 1806 3559 1356 
Q 3559 666 3084 287 
Q 2609 -91 1734 -91 
Q 1441 -91 1130 -33 
Q 819 25 488 141 
L 488 750 
Q 750 597 1062 519 
Q 1375 441 1716 441 
Q 2309 441 2620 675 
Q 2931 909 2931 1356 
Q 2931 1769 2642 2001 
Q 2353 2234 1838 2234 
L 1294 2234 
L 1294 2753 
L 1863 2753 
Q 2328 2753 2575 2939 
Q 2822 3125 2822 3475 
Q 2822 3834 2567 4026 
Q 2313 4219 1838 4219 
Q 1578 4219 1281 4162 
Q 984 4106 628 3988 
L 628 4550 
Q 988 4650 1302 4700 
Q 1616 4750 1894 4750 
Q 2613 4750 3031 4423 
Q 3450 4097 3450 3541 
Q 3450 3153 3228 2886 
Q 3006 2619 2597 2516 
z
" transform="scale(0.015625)"/>
     </defs>
     <use xlink:href="#DejaVuSans-20"/>
     <use xlink:href="#DejaVuSans-20" transform="translate(31.787109 0)"/>
     <use xlink:href="#DejaVuSans-33" transform="translate(63.574219 0)"/>
     <use xlink:href="#DejaVuSans-32" transform="translate(127.197266 0)"/>
    </g>
    <!--  -->
    <g transform="translate(65.292784 304.09875) scale(0.105 -0.105)"/>
    <!--  -->
    <g transform="translate(65.292784 307.479176) scale(0.105 -0.105)"/>
    <!--  -->
    <g transform="translate(65.292784 310.859602) scale(0.105 -0.105)"/>
    <!--  -->
    <g transform="translate(65.292784 314.240027) scale(0.105 -0.105)"/>
   </g>
   <g id="text_9">
    <g id="patch_10">
     <path d="M 308.688466 266.536887 
L 400.140185 266.536887 
Q 404.340185 266.536887 404.340185 262.336887 
L 404.340185 174.425062 
Q 404.340185 170.225062 400.140185 170.225062 
L 308.688466 170.225062 
Q 304.488466 170.225062 304.488466 174.425062 
L 304.488466 262.336887 
Q 304.488466 266.536887 308.688466 266.536887 
z
" style="fill: #ffffff; stroke: #000000; stroke-linejoin: miter"/>
    </g>
    <!-- $\mathbf{Data:}$ -->
    <g transform="translate(308.688466 182.403422) scale(0.105 -0.105)">
     <use xlink:href="#DejaVuSans-Bold-44" transform="translate(0 0.09375)"/>
     <use xlink:href="#DejaVuSans-Bold-61" transform="translate(83.007812 0.09375)"/>
     <use xlink:href="#DejaVuSans-Bold-74" transform="translate(150.488281 0.09375)"/>
     <use xlink:href="#DejaVuSans-Bold-61" transform="translate(198.291016 0.09375)"/>
     <use xlink:href="#DejaVuSans-Bold-3a" transform="translate(285.253906 0.09375)"/>
    </g>
    <!--  -->
    <g transform="translate(308.688466 185.783848) scale(0.105 -0.105)"/>
    <!--  -->
    <g transform="translate(308.688466 189.164273) scale(0.105 -0.105)"/>
    <!--  -->
    <g transform="translate(308.688466 192.544699) scale(0.105 -0.105)"/>
    <!--  gpt-4o-mini -->
    <g transform="translate(308.688466 195.925125) scale(0.105 -0.105)">
     <defs>
      <path id="DejaVuSans-67" d="M 2906 1791 
Q 2906 2416 2648 2759 
Q 2391 3103 1925 3103 
Q 1463 3103 1205 2759 
Q 947 2416 947 1791 
Q 947 1169 1205 825 
Q 1463 481 1925 481 
Q 2391 481 2648 825 
Q 2906 1169 2906 1791 
z
M 3481 434 
Q 3481 -459 3084 -895 
Q 2688 -1331 1869 -1331 
Q 1566 -1331 1297 -1286 
Q 1028 -1241 775 -1147 
L 775 -588 
Q 1028 -725 1275 -790 
Q 1522 -856 1778 -856 
Q 2344 -856 2625 -561 
Q 2906 -266 2906 331 
L 2906 616 
Q 2728 306 2450 153 
Q 2172 0 1784 0 
Q 1141 0 747 490 
Q 353 981 353 1791 
Q 353 2603 747 3093 
Q 1141 3584 1784 3584 
Q 2172 3584 2450 3431 
Q 2728 3278 2906 2969 
L 2906 3500 
L 3481 3500 
L 3481 434 
z
" transform="scale(0.015625)"/>
      <path id="DejaVuSans-2d" d="M 313 2009 
L 1997 2009 
L 1997 1497 
L 313 1497 
L 313 2009 
z
" transform="scale(0.015625)"/>
     </defs>
     <use xlink:href="#DejaVuSans-20"/>
     <use xlink:href="#DejaVuSans-67" transform="translate(31.787109 0)"/>
     <use xlink:href="#DejaVuSans-70" transform="translate(95.263672 0)"/>
     <use xlink:href="#DejaVuSans-74" transform="translate(158.740234 0)"/>
     <use xlink:href="#DejaVuSans-2d" transform="translate(197.949219 0)"/>
     <use xlink:href="#DejaVuSans-34" transform="translate(234.033203 0)"/>
     <use xlink:href="#DejaVuSans-6f" transform="translate(297.65625 0)"/>
     <use xlink:href="#DejaVuSans-2d" transform="translate(360.712891 0)"/>
     <use xlink:href="#DejaVuSans-6d" transform="translate(396.796875 0)"/>
     <use xlink:href="#DejaVuSans-69" transform="translate(494.208984 0)"/>
     <use xlink:href="#DejaVuSans-6e" transform="translate(521.992188 0)"/>
     <use xlink:href="#DejaVuSans-69" transform="translate(585.371094 0)"/>
    </g>
    <!--  -->
    <g transform="translate(308.688466 199.305551) scale(0.105 -0.105)"/>
    <!--  -->
    <g transform="translate(308.688466 202.685977) scale(0.105 -0.105)"/>
    <!--  -->
    <g transform="translate(308.688466 206.066402) scale(0.105 -0.105)"/>
    <!--  No Perturbations -->
    <g transform="translate(308.688466 209.446828) scale(0.105 -0.105)">
     <defs>
      <path id="DejaVuSans-4e" d="M 628 4666 
L 1478 4666 
L 3547 763 
L 3547 4666 
L 4159 4666 
L 4159 0 
L 3309 0 
L 1241 3903 
L 1241 0 
L 628 0 
L 628 4666 
z
" transform="scale(0.015625)"/>
      <path id="DejaVuSans-50" d="M 1259 4147 
L 1259 2394 
L 2053 2394 
Q 2494 2394 2734 2622 
Q 2975 2850 2975 3272 
Q 2975 3691 2734 3919 
Q 2494 4147 2053 4147 
L 1259 4147 
z
M 628 4666 
L 2053 4666 
Q 2838 4666 3239 4311 
Q 3641 3956 3641 3272 
Q 3641 2581 3239 2228 
Q 2838 1875 2053 1875 
L 1259 1875 
L 1259 0 
L 628 0 
L 628 4666 
z
" transform="scale(0.015625)"/>
      <path id="DejaVuSans-62" d="M 3116 1747 
Q 3116 2381 2855 2742 
Q 2594 3103 2138 3103 
Q 1681 3103 1420 2742 
Q 1159 2381 1159 1747 
Q 1159 1113 1420 752 
Q 1681 391 2138 391 
Q 2594 391 2855 752 
Q 3116 1113 3116 1747 
z
M 1159 2969 
Q 1341 3281 1617 3432 
Q 1894 3584 2278 3584 
Q 2916 3584 3314 3078 
Q 3713 2572 3713 1747 
Q 3713 922 3314 415 
Q 2916 -91 2278 -91 
Q 1894 -91 1617 61 
Q 1341 213 1159 525 
L 1159 0 
L 581 0 
L 581 4863 
L 1159 4863 
L 1159 2969 
z
" transform="scale(0.015625)"/>
      <path id="DejaVuSans-61" d="M 2194 1759 
Q 1497 1759 1228 1600 
Q 959 1441 959 1056 
Q 959 750 1161 570 
Q 1363 391 1709 391 
Q 2188 391 2477 730 
Q 2766 1069 2766 1631 
L 2766 1759 
L 2194 1759 
z
M 3341 1997 
L 3341 0 
L 2766 0 
L 2766 531 
Q 2569 213 2275 61 
Q 1981 -91 1556 -91 
Q 1019 -91 701 211 
Q 384 513 384 1019 
Q 384 1609 779 1909 
Q 1175 2209 1959 2209 
L 2766 2209 
L 2766 2266 
Q 2766 2663 2505 2880 
Q 2244 3097 1772 3097 
Q 1472 3097 1187 3025 
Q 903 2953 641 2809 
L 641 3341 
Q 956 3463 1253 3523 
Q 1550 3584 1831 3584 
Q 2591 3584 2966 3190 
Q 3341 2797 3341 1997 
z
" transform="scale(0.015625)"/>
     </defs>
     <use xlink:href="#DejaVuSans-20"/>
     <use xlink:href="#DejaVuSans-4e" transform="translate(31.787109 0)"/>
     <use xlink:href="#DejaVuSans-6f" transform="translate(106.591797 0)"/>
     <use xlink:href="#DejaVuSans-20" transform="translate(167.773438 0)"/>
     <use xlink:href="#DejaVuSans-50" transform="translate(199.560547 0)"/>
     <use xlink:href="#DejaVuSans-65" transform="translate(256.238281 0)"/>
     <use xlink:href="#DejaVuSans-72" transform="translate(317.761719 0)"/>
     <use xlink:href="#DejaVuSans-74" transform="translate(358.875 0)"/>
     <use xlink:href="#DejaVuSans-75" transform="translate(398.083984 0)"/>
     <use xlink:href="#DejaVuSans-72" transform="translate(461.462891 0)"/>
     <use xlink:href="#DejaVuSans-62" transform="translate(502.576172 0)"/>
     <use xlink:href="#DejaVuSans-61" transform="translate(566.052734 0)"/>
     <use xlink:href="#DejaVuSans-74" transform="translate(627.332031 0)"/>
     <use xlink:href="#DejaVuSans-69" transform="translate(666.541016 0)"/>
     <use xlink:href="#DejaVuSans-6f" transform="translate(694.324219 0)"/>
     <use xlink:href="#DejaVuSans-6e" transform="translate(755.505859 0)"/>
     <use xlink:href="#DejaVuSans-73" transform="translate(818.884766 0)"/>
    </g>
    <!--  -->
    <g transform="translate(308.688466 212.827254) scale(0.105 -0.105)"/>
    <!--  -->
    <g transform="translate(308.688466 216.20768) scale(0.105 -0.105)"/>
    <!--  -->
    <g transform="translate(308.688466 219.588105) scale(0.105 -0.105)"/>
    <!--  -->
    <g transform="translate(308.688466 222.968531) scale(0.105 -0.105)"/>
    <!-- $\mathbf{N:}$ 200 -->
    <g transform="translate(308.688466 226.348957) scale(0.105 -0.105)">
     <use xlink:href="#DejaVuSans-Bold-4e" transform="translate(0 0.78125)"/>
     <use xlink:href="#DejaVuSans-Bold-3a" transform="translate(103.173828 0.78125)"/>
     <use xlink:href="#DejaVuSans-20" transform="translate(162.646484 0.78125)"/>
     <use xlink:href="#DejaVuSans-32" transform="translate(194.433594 0.78125)"/>
     <use xlink:href="#DejaVuSans-30" transform="translate(258.056641 0.78125)"/>
     <use xlink:href="#DejaVuSans-30" transform="translate(321.679688 0.78125)"/>
    </g>
    <!--  -->
    <g transform="translate(308.688466 229.729383) scale(0.105 -0.105)"/>
    <!--  -->
    <g transform="translate(308.688466 233.109809) scale(0.105 -0.105)"/>
    <!--  -->
    <g transform="translate(308.688466 236.490234) scale(0.105 -0.105)"/>
    <!--  -->
    <g transform="translate(308.688466 239.87066) scale(0.105 -0.105)"/>
    <!-- $\mathbf{Median:}$ 97.8% -->
    <g transform="translate(308.688466 243.251086) scale(0.105 -0.105)">
     <use xlink:href="#DejaVuSans-Bold-4d" transform="translate(0 0.015625)"/>
     <use xlink:href="#DejaVuSans-Bold-65" transform="translate(99.511719 0.015625)"/>
     <use xlink:href="#DejaVuSans-Bold-64" transform="translate(167.333984 0.015625)"/>
     <use xlink:href="#DejaVuSans-Bold-69" transform="translate(238.916016 0.015625)"/>
     <use xlink:href="#DejaVuSans-Bold-61" transform="translate(273.193359 0.015625)"/>
     <use xlink:href="#DejaVuSans-Bold-6e" transform="translate(340.673828 0.015625)"/>
     <use xlink:href="#DejaVuSans-Bold-3a" transform="translate(431.347656 0.015625)"/>
     <use xlink:href="#DejaVuSans-20" transform="translate(490.820312 0.015625)"/>
     <use xlink:href="#DejaVuSans-39" transform="translate(522.607422 0.015625)"/>
     <use xlink:href="#DejaVuSans-37" transform="translate(586.230469 0.015625)"/>
     <use xlink:href="#DejaVuSans-2e" transform="translate(649.853516 0.015625)"/>
     <use xlink:href="#DejaVuSans-38" transform="translate(679.015625 0.015625)"/>
     <use xlink:href="#DejaVuSans-25" transform="translate(742.638672 0.015625)"/>
    </g>
    <!--  -->
    <g transform="translate(308.688466 246.631512) scale(0.105 -0.105)"/>
    <!--  -->
    <g transform="translate(308.688466 250.011937) scale(0.105 -0.105)"/>
    <!--  -->
    <g transform="translate(308.688466 253.392363) scale(0.105 -0.105)"/>
    <!--  -->
    <g transform="translate(308.688466 256.772789) scale(0.105 -0.105)"/>
    <!--  -->
    <g transform="translate(308.688466 260.153215) scale(0.105 -0.105)"/>
   </g>
  </g>
 </g>
 <defs>
  <clipPath id="p422aed0b21">
   <rect x="48.506875" y="11.759062" width="369.29" height="325.332"/>
  </clipPath>
 </defs>
</svg>
