<?xml version="1.0" encoding="utf-8" standalone="no"?>
<!DOCTYPE svg PUBLIC "-//W3C//DTD SVG 1.1//EN"
  "http://www.w3.org/Graphics/SVG/1.1/DTD/svg11.dtd">
<svg xmlns:xlink="http://www.w3.org/1999/xlink" width="711.945589pt" height="280.782187pt" viewBox="0 0 711.945589 280.782187" xmlns="http://www.w3.org/2000/svg" version="1.1">
 <metadata>
  <rdf:RDF xmlns:dc="http://purl.org/dc/elements/1.1/" xmlns:cc="http://creativecommons.org/ns#" xmlns:rdf="http://www.w3.org/1999/02/22-rdf-syntax-ns#">
   <cc:Work>
    <dc:type rdf:resource="http://purl.org/dc/dcmitype/StillImage"/>
    <dc:date>2026-04-13T15:02:13.191352</dc:date>
    <dc:format>image/svg+xml</dc:format>
    <dc:creator>
     <cc:Agent>
      <dc:title>Matplotlib v3.10.8, https://matplotlib.org/</dc:title>
     </cc:Agent>
    </dc:creator>
   </cc:Work>
  </rdf:RDF>
 </metadata>
 <defs>
  <style type="text/css">*{stroke-linejoin: round; stroke-linecap: butt}</style>
 </defs>
 <g id="figure_1">
  <g id="patch_1">
   <path d="M -0 280.782187 
L 711.945589 280.782187 
L 711.945589 0 
L -0 0 
z
" style="fill: #ffffff"/>
  </g>
  <g id="axes_1">
   <g id="patch_2">
    <path d="M 47.019375 237.22 
L 704.745589 237.22 
L 704.745589 7.2 
L 47.019375 7.2 
z
" style="fill: #ffffff"/>
   </g>
   <g id="PathCollection_1">
    <defs>
     <path id="m22324bd81f" d="M 0 4.472136 
C 1.186024 4.472136 2.323632 4.000923 3.162278 3.162278 
C 4.000923 2.323632 4.472136 1.186024 4.472136 0 
C 4.472136 -1.186024 4.000923 -2.323632 3.162278 -3.162278 
C 2.323632 -4.000923 1.186024 -4.472136 0 -4.472136 
C -1.186024 -4.472136 -2.323632 -4.000923 -3.162278 -3.162278 
C -4.000923 -2.323632 -4.472136 -1.186024 -4.472136 0 
C -4.472136 1.186024 -4.000923 2.323632 -3.162278 3.162278 
C -2.323632 4.000923 -1.186024 4.472136 0 4.472136 
z
" style="stroke: #000000; stroke-width: 0.5"/>
    </defs>
    <g clip-path="url(#pd4a4eee8b4)">
     <use xlink:href="#m22324bd81f" x="56.597912" y="17.655455" style="fill: #00775f; stroke: #000000; stroke-width: 0.5"/>
    </g>
   </g>
   <g id="PathCollection_2">
    <defs>
     <path id="m97ca817183" d="M -4.472136 4.472136 
L 4.472136 4.472136 
L 4.472136 -4.472136 
L -4.472136 -4.472136 
z
" style="stroke: #000000; stroke-width: 0.5"/>
    </defs>
    <g clip-path="url(#pd4a4eee8b4)">
     <use xlink:href="#m97ca817183" x="56.597912" y="40.951243" style="fill: #3a87b7; stroke: #000000; stroke-width: 0.5"/>
    </g>
   </g>
   <g id="PathCollection_3">
    <defs>
     <path id="mbad29de8a6" d="M -0 6.324555 
L 6.324555 0 
L 0 -6.324555 
L -6.324555 -0 
z
" style="stroke: #000000; stroke-width: 0.5"/>
    </defs>
    <g clip-path="url(#pd4a4eee8b4)">
     <use xlink:href="#mbad29de8a6" x="56.597912" y="45.190407" style="fill: #c07d00; stroke: #000000; stroke-width: 0.5"/>
    </g>
   </g>
   <g id="PathCollection_4">
    <defs>
     <path id="m2b0fe18de4" d="M 0 -4.472136 
L -4.472136 4.472136 
L 4.472136 4.472136 
z
" style="stroke: #000000; stroke-width: 0.5"/>
    </defs>
    <g clip-path="url(#pd4a4eee8b4)">
     <use xlink:href="#m2b0fe18de4" x="56.597912" y="50.648809" style="fill: #cfc632; stroke: #000000; stroke-width: 0.5"/>
    </g>
   </g>
   <g id="matplotlib.axis_1">
    <g id="xtick_1">
     <g id="line2d_1">
      <path d="M 56.597912 237.22 
L 56.597912 7.2 
" clip-path="url(#pd4a4eee8b4)" style="fill: none; stroke-dasharray: 1.85,0.8; stroke-dashoffset: 0; stroke: #b0b0b0; stroke-opacity: 0.6; stroke-width: 0.5"/>
     </g>
     <g id="line2d_2">
      <defs>
       <path id="m95d7471f84" d="M 0 0 
L 0 3.5 
" style="stroke: #000000; stroke-width: 0.8"/>
      </defs>
      <g>
       <use xlink:href="#m95d7471f84" x="56.597912" y="237.22" style="stroke: #000000; stroke-width: 0.8"/>
      </g>
     </g>
     <g id="text_1">
      <!-- 0.0 -->
      <g transform="translate(47.056037 253.338125) scale(0.12 -0.12)">
       <defs>
        <path id="DejaVuSerif-30" d="M 2034 219 
Q 2513 219 2750 744 
Q 2988 1269 2988 2328 
Q 2988 3391 2750 3916 
Q 2513 4441 2034 4441 
Q 1556 4441 1318 3916 
Q 1081 3391 1081 2328 
Q 1081 1269 1318 744 
Q 1556 219 2034 219 
z
M 2034 -91 
Q 1275 -91 848 546 
Q 422 1184 422 2328 
Q 422 3475 848 4112 
Q 1275 4750 2034 4750 
Q 2797 4750 3222 4112 
Q 3647 3475 3647 2328 
Q 3647 1184 3222 546 
Q 2797 -91 2034 -91 
z
" transform="scale(0.015625)"/>
        <path id="DejaVuSerif-2e" d="M 603 325 
Q 603 500 722 622 
Q 841 744 1019 744 
Q 1191 744 1312 622 
Q 1434 500 1434 325 
Q 1434 153 1312 31 
Q 1191 -91 1019 -91 
Q 841 -91 722 29 
Q 603 150 603 325 
z
" transform="scale(0.015625)"/>
       </defs>
       <use xlink:href="#DejaVuSerif-30"/>
       <use xlink:href="#DejaVuSerif-2e" transform="translate(63.623047 0)"/>
       <use xlink:href="#DejaVuSerif-30" transform="translate(95.410156 0)"/>
      </g>
     </g>
    </g>
    <g id="xtick_2">
     <g id="line2d_3">
      <path d="M 184.31174 237.22 
L 184.31174 7.2 
" clip-path="url(#pd4a4eee8b4)" style="fill: none; stroke-dasharray: 1.85,0.8; stroke-dashoffset: 0; stroke: #b0b0b0; stroke-opacity: 0.6; stroke-width: 0.5"/>
     </g>
     <g id="line2d_4">
      <g>
       <use xlink:href="#m95d7471f84" x="184.31174" y="237.22" style="stroke: #000000; stroke-width: 0.8"/>
      </g>
     </g>
     <g id="text_2">
      <!-- 0.2 -->
      <g transform="translate(174.769865 253.338125) scale(0.12 -0.12)">
       <defs>
        <path id="DejaVuSerif-32" d="M 819 3553 
L 469 3553 
L 469 4384 
Q 803 4563 1142 4656 
Q 1481 4750 1806 4750 
Q 2534 4750 2956 4397 
Q 3378 4044 3378 3438 
Q 3378 2753 2422 1800 
Q 2347 1728 2309 1691 
L 1131 513 
L 3078 513 
L 3078 1088 
L 3444 1088 
L 3444 0 
L 434 0 
L 434 341 
L 1850 1753 
Q 2319 2222 2519 2614 
Q 2719 3006 2719 3438 
Q 2719 3909 2473 4175 
Q 2228 4441 1797 4441 
Q 1350 4441 1106 4219 
Q 863 3997 819 3553 
z
" transform="scale(0.015625)"/>
       </defs>
       <use xlink:href="#DejaVuSerif-30"/>
       <use xlink:href="#DejaVuSerif-2e" transform="translate(63.623047 0)"/>
       <use xlink:href="#DejaVuSerif-32" transform="translate(95.410156 0)"/>
      </g>
     </g>
    </g>
    <g id="xtick_3">
     <g id="line2d_5">
      <path d="M 312.025568 237.22 
L 312.025568 7.2 
" clip-path="url(#pd4a4eee8b4)" style="fill: none; stroke-dasharray: 1.85,0.8; stroke-dashoffset: 0; stroke: #b0b0b0; stroke-opacity: 0.6; stroke-width: 0.5"/>
     </g>
     <g id="line2d_6">
      <g>
       <use xlink:href="#m95d7471f84" x="312.025568" y="237.22" style="stroke: #000000; stroke-width: 0.8"/>
      </g>
     </g>
     <g id="text_3">
      <!-- 0.4 -->
      <g transform="translate(302.483693 253.338125) scale(0.12 -0.12)">
       <defs>
        <path id="DejaVuSerif-34" d="M 2234 1581 
L 2234 4063 
L 641 1581 
L 2234 1581 
z
M 3609 0 
L 1484 0 
L 1484 331 
L 2234 331 
L 2234 1247 
L 197 1247 
L 197 1588 
L 2241 4750 
L 2859 4750 
L 2859 1581 
L 3750 1581 
L 3750 1247 
L 2859 1247 
L 2859 331 
L 3609 331 
L 3609 0 
z
" transform="scale(0.015625)"/>
       </defs>
       <use xlink:href="#DejaVuSerif-30"/>
       <use xlink:href="#DejaVuSerif-2e" transform="translate(63.623047 0)"/>
       <use xlink:href="#DejaVuSerif-34" transform="translate(95.410156 0)"/>
      </g>
     </g>
    </g>
    <g id="xtick_4">
     <g id="line2d_7">
      <path d="M 439.739396 237.22 
L 439.739396 7.2 
" clip-path="url(#pd4a4eee8b4)" style="fill: none; stroke-dasharray: 1.85,0.8; stroke-dashoffset: 0; stroke: #b0b0b0; stroke-opacity: 0.6; stroke-width: 0.5"/>
     </g>
     <g id="line2d_8">
      <g>
       <use xlink:href="#m95d7471f84" x="439.739396" y="237.22" style="stroke: #000000; stroke-width: 0.8"/>
      </g>
     </g>
     <g id="text_4">
      <!-- 0.6 -->
      <g transform="translate(430.197521 253.338125) scale(0.12 -0.12)">
       <defs>
        <path id="DejaVuSerif-36" d="M 2094 219 
Q 2534 219 2771 542 
Q 3009 866 3009 1472 
Q 3009 2078 2771 2401 
Q 2534 2725 2094 2725 
Q 1647 2725 1412 2412 
Q 1178 2100 1178 1509 
Q 1178 888 1415 553 
Q 1653 219 2094 219 
z
M 1075 2569 
Q 1288 2803 1556 2918 
Q 1825 3034 2163 3034 
Q 2859 3034 3264 2615 
Q 3669 2197 3669 1472 
Q 3669 763 3233 336 
Q 2797 -91 2069 -91 
Q 1278 -91 853 498 
Q 428 1088 428 2181 
Q 428 3406 931 4078 
Q 1434 4750 2350 4750 
Q 2597 4750 2869 4703 
Q 3141 4656 3425 4563 
L 3425 3794 
L 3072 3794 
Q 3034 4109 2831 4275 
Q 2628 4441 2284 4441 
Q 1678 4441 1381 3981 
Q 1084 3522 1075 2569 
z
" transform="scale(0.015625)"/>
       </defs>
       <use xlink:href="#DejaVuSerif-30"/>
       <use xlink:href="#DejaVuSerif-2e" transform="translate(63.623047 0)"/>
       <use xlink:href="#DejaVuSerif-36" transform="translate(95.410156 0)"/>
      </g>
     </g>
    </g>
    <g id="xtick_5">
     <g id="line2d_9">
      <path d="M 567.453224 237.22 
L 567.453224 7.2 
" clip-path="url(#pd4a4eee8b4)" style="fill: none; stroke-dasharray: 1.85,0.8; stroke-dashoffset: 0; stroke: #b0b0b0; stroke-opacity: 0.6; stroke-width: 0.5"/>
     </g>
     <g id="line2d_10">
      <g>
       <use xlink:href="#m95d7471f84" x="567.453224" y="237.22" style="stroke: #000000; stroke-width: 0.8"/>
      </g>
     </g>
     <g id="text_5">
      <!-- 0.8 -->
      <g transform="translate(557.911349 253.338125) scale(0.12 -0.12)">
       <defs>
        <path id="DejaVuSerif-38" d="M 2981 1275 
Q 2981 1775 2732 2051 
Q 2484 2328 2034 2328 
Q 1584 2328 1336 2051 
Q 1088 1775 1088 1275 
Q 1088 772 1336 495 
Q 1584 219 2034 219 
Q 2484 219 2732 495 
Q 2981 772 2981 1275 
z
M 2853 3541 
Q 2853 3966 2637 4203 
Q 2422 4441 2034 4441 
Q 1650 4441 1433 4203 
Q 1216 3966 1216 3541 
Q 1216 3113 1433 2875 
Q 1650 2638 2034 2638 
Q 2422 2638 2637 2875 
Q 2853 3113 2853 3541 
z
M 2516 2484 
Q 3047 2413 3344 2092 
Q 3641 1772 3641 1275 
Q 3641 619 3225 264 
Q 2809 -91 2034 -91 
Q 1263 -91 845 264 
Q 428 619 428 1275 
Q 428 1772 725 2092 
Q 1022 2413 1556 2484 
Q 1084 2569 832 2842 
Q 581 3116 581 3541 
Q 581 4103 968 4426 
Q 1356 4750 2034 4750 
Q 2713 4750 3100 4426 
Q 3488 4103 3488 3541 
Q 3488 3116 3236 2842 
Q 2984 2569 2516 2484 
z
" transform="scale(0.015625)"/>
       </defs>
       <use xlink:href="#DejaVuSerif-30"/>
       <use xlink:href="#DejaVuSerif-2e" transform="translate(63.623047 0)"/>
       <use xlink:href="#DejaVuSerif-38" transform="translate(95.410156 0)"/>
      </g>
     </g>
    </g>
    <g id="xtick_6">
     <g id="line2d_11">
      <path d="M 695.167052 237.22 
L 695.167052 7.2 
" clip-path="url(#pd4a4eee8b4)" style="fill: none; stroke-dasharray: 1.85,0.8; stroke-dashoffset: 0; stroke: #b0b0b0; stroke-opacity: 0.6; stroke-width: 0.5"/>
     </g>
     <g id="line2d_12">
      <g>
       <use xlink:href="#m95d7471f84" x="695.167052" y="237.22" style="stroke: #000000; stroke-width: 0.8"/>
      </g>
     </g>
     <g id="text_6">
      <!-- 1.0 -->
      <g transform="translate(685.625177 253.338125) scale(0.12 -0.12)">
       <defs>
        <path id="DejaVuSerif-31" d="M 909 0 
L 909 331 
L 1722 331 
L 1722 4213 
L 781 3603 
L 781 4013 
L 1919 4750 
L 2350 4750 
L 2350 331 
L 3163 331 
L 3163 0 
L 909 0 
z
" transform="scale(0.015625)"/>
       </defs>
       <use xlink:href="#DejaVuSerif-31"/>
       <use xlink:href="#DejaVuSerif-2e" transform="translate(63.623047 0)"/>
       <use xlink:href="#DejaVuSerif-30" transform="translate(95.410156 0)"/>
      </g>
     </g>
    </g>
    <g id="text_7">
     <!-- Perturbation Intensity (normalized) -->
     <g transform="translate(249.983107 270.471562) scale(0.14 -0.14)">
      <defs>
       <path id="DejaVuSerif-50" d="M 1581 2375 
L 2406 2375 
Q 2872 2375 3115 2626 
Q 3359 2878 3359 3353 
Q 3359 3831 3115 4081 
Q 2872 4331 2406 4331 
L 1581 4331 
L 1581 2375 
z
M 353 0 
L 353 331 
L 947 331 
L 947 4331 
L 353 4331 
L 353 4666 
L 2559 4666 
Q 3259 4666 3668 4311 
Q 4078 3956 4078 3353 
Q 4078 2753 3668 2397 
Q 3259 2041 2559 2041 
L 1581 2041 
L 1581 331 
L 2303 331 
L 2303 0 
L 353 0 
z
" transform="scale(0.015625)"/>
       <path id="DejaVuSerif-65" d="M 3469 1600 
L 991 1600 
L 991 1575 
Q 991 903 1244 561 
Q 1497 219 1991 219 
Q 2369 219 2611 417 
Q 2853 616 2950 1006 
L 3413 1006 
Q 3275 459 2904 184 
Q 2534 -91 1931 -91 
Q 1203 -91 761 389 
Q 319 869 319 1663 
Q 319 2450 753 2931 
Q 1188 3413 1894 3413 
Q 2647 3413 3050 2948 
Q 3453 2484 3469 1600 
z
M 2791 1931 
Q 2772 2513 2545 2808 
Q 2319 3103 1894 3103 
Q 1497 3103 1269 2806 
Q 1041 2509 991 1931 
L 2791 1931 
z
" transform="scale(0.015625)"/>
       <path id="DejaVuSerif-72" d="M 3059 3328 
L 3059 2497 
L 2728 2497 
Q 2713 2744 2591 2866 
Q 2469 2988 2234 2988 
Q 1809 2988 1582 2694 
Q 1356 2400 1356 1850 
L 1356 331 
L 2022 331 
L 2022 0 
L 263 0 
L 263 331 
L 781 331 
L 781 2994 
L 231 2994 
L 231 3322 
L 1356 3322 
L 1356 2731 
Q 1525 3078 1790 3245 
Q 2056 3413 2438 3413 
Q 2578 3413 2733 3391 
Q 2888 3369 3059 3328 
z
" transform="scale(0.015625)"/>
       <path id="DejaVuSerif-74" d="M 691 2988 
L 184 2988 
L 184 3322 
L 691 3322 
L 691 4353 
L 1269 4353 
L 1269 3322 
L 2350 3322 
L 2350 2988 
L 1269 2988 
L 1269 878 
Q 1269 456 1350 337 
Q 1431 219 1650 219 
Q 1875 219 1978 351 
Q 2081 484 2088 781 
L 2522 781 
Q 2497 328 2275 118 
Q 2053 -91 1600 -91 
Q 1103 -91 897 129 
Q 691 350 691 878 
L 691 2988 
z
" transform="scale(0.015625)"/>
       <path id="DejaVuSerif-75" d="M 2266 3322 
L 3341 3322 
L 3341 331 
L 3884 331 
L 3884 0 
L 2766 0 
L 2766 588 
Q 2606 256 2353 82 
Q 2100 -91 1766 -91 
Q 1213 -91 952 223 
Q 691 538 691 1209 
L 691 2988 
L 172 2988 
L 172 3322 
L 1269 3322 
L 1269 1388 
Q 1269 781 1417 556 
Q 1566 331 1947 331 
Q 2347 331 2556 625 
Q 2766 919 2766 1478 
L 2766 2988 
L 2266 2988 
L 2266 3322 
z
" transform="scale(0.015625)"/>
       <path id="DejaVuSerif-62" d="M 738 331 
L 738 4531 
L 184 4531 
L 184 4863 
L 1313 4863 
L 1313 2803 
Q 1481 3116 1742 3264 
Q 2003 3413 2388 3413 
Q 3000 3413 3387 2928 
Q 3775 2444 3775 1663 
Q 3775 881 3387 395 
Q 3000 -91 2388 -91 
Q 2003 -91 1742 57 
Q 1481 206 1313 519 
L 1313 0 
L 184 0 
L 184 331 
L 738 331 
z
M 1313 1497 
Q 1313 897 1542 583 
Q 1772 269 2209 269 
Q 2650 269 2876 622 
Q 3103 975 3103 1663 
Q 3103 2353 2876 2703 
Q 2650 3053 2209 3053 
Q 1772 3053 1542 2737 
Q 1313 2422 1313 1825 
L 1313 1497 
z
" transform="scale(0.015625)"/>
       <path id="DejaVuSerif-61" d="M 2547 1044 
L 2547 1747 
L 1806 1747 
Q 1378 1747 1168 1562 
Q 959 1378 959 997 
Q 959 650 1171 447 
Q 1384 244 1747 244 
Q 2106 244 2326 466 
Q 2547 688 2547 1044 
z
M 3122 2075 
L 3122 331 
L 3634 331 
L 3634 0 
L 2547 0 
L 2547 359 
Q 2356 128 2106 18 
Q 1856 -91 1522 -91 
Q 969 -91 644 203 
Q 319 497 319 997 
Q 319 1513 691 1797 
Q 1063 2081 1741 2081 
L 2547 2081 
L 2547 2309 
Q 2547 2688 2317 2895 
Q 2088 3103 1672 3103 
Q 1328 3103 1125 2947 
Q 922 2791 872 2484 
L 575 2484 
L 575 3156 
Q 875 3284 1158 3348 
Q 1441 3413 1709 3413 
Q 2400 3413 2761 3070 
Q 3122 2728 3122 2075 
z
" transform="scale(0.015625)"/>
       <path id="DejaVuSerif-69" d="M 622 4353 
Q 622 4497 726 4603 
Q 831 4709 978 4709 
Q 1122 4709 1226 4603 
Q 1331 4497 1331 4353 
Q 1331 4206 1228 4103 
Q 1125 4000 978 4000 
Q 831 4000 726 4103 
Q 622 4206 622 4353 
z
M 1356 331 
L 1900 331 
L 1900 0 
L 231 0 
L 231 331 
L 781 331 
L 781 2988 
L 231 2988 
L 231 3322 
L 1356 3322 
L 1356 331 
z
" transform="scale(0.015625)"/>
       <path id="DejaVuSerif-6f" d="M 1925 219 
Q 2388 219 2623 584 
Q 2859 950 2859 1663 
Q 2859 2375 2623 2739 
Q 2388 3103 1925 3103 
Q 1463 3103 1227 2739 
Q 991 2375 991 1663 
Q 991 950 1228 584 
Q 1466 219 1925 219 
z
M 1925 -91 
Q 1200 -91 759 389 
Q 319 869 319 1663 
Q 319 2456 758 2934 
Q 1197 3413 1925 3413 
Q 2653 3413 3092 2934 
Q 3531 2456 3531 1663 
Q 3531 869 3092 389 
Q 2653 -91 1925 -91 
z
" transform="scale(0.015625)"/>
       <path id="DejaVuSerif-6e" d="M 263 0 
L 263 331 
L 781 331 
L 781 2988 
L 231 2988 
L 231 3322 
L 1356 3322 
L 1356 2731 
Q 1516 3069 1770 3241 
Q 2025 3413 2363 3413 
Q 2913 3413 3172 3097 
Q 3431 2781 3431 2113 
L 3431 331 
L 3944 331 
L 3944 0 
L 2356 0 
L 2356 331 
L 2853 331 
L 2853 1931 
Q 2853 2541 2703 2767 
Q 2553 2994 2175 2994 
Q 1775 2994 1565 2701 
Q 1356 2409 1356 1850 
L 1356 331 
L 1856 331 
L 1856 0 
L 263 0 
z
" transform="scale(0.015625)"/>
       <path id="DejaVuSerif-20" transform="scale(0.015625)"/>
       <path id="DejaVuSerif-49" d="M 1581 331 
L 2175 331 
L 2175 0 
L 353 0 
L 353 331 
L 947 331 
L 947 4331 
L 353 4331 
L 353 4666 
L 2175 4666 
L 2175 4331 
L 1581 4331 
L 1581 331 
z
" transform="scale(0.015625)"/>
       <path id="DejaVuSerif-73" d="M 359 184 
L 359 959 
L 691 959 
Q 703 588 923 403 
Q 1144 219 1575 219 
Q 1963 219 2166 364 
Q 2369 509 2369 788 
Q 2369 1006 2220 1140 
Q 2072 1275 1594 1428 
L 1178 1569 
Q 750 1706 558 1912 
Q 366 2119 366 2438 
Q 366 2894 700 3153 
Q 1034 3413 1625 3413 
Q 1888 3413 2178 3344 
Q 2469 3275 2778 3144 
L 2778 2419 
L 2447 2419 
Q 2434 2741 2221 2922 
Q 2009 3103 1644 3103 
Q 1281 3103 1095 2975 
Q 909 2847 909 2591 
Q 909 2381 1050 2254 
Q 1191 2128 1613 1997 
L 2069 1856 
Q 2541 1709 2748 1489 
Q 2956 1269 2956 922 
Q 2956 450 2595 179 
Q 2234 -91 1600 -91 
Q 1278 -91 972 -22 
Q 666 47 359 184 
z
" transform="scale(0.015625)"/>
       <path id="DejaVuSerif-79" d="M 1381 -609 
L 1600 -56 
L 359 2988 
L -19 2988 
L -19 3322 
L 1509 3322 
L 1509 2988 
L 978 2988 
L 1913 703 
L 2847 2988 
L 2350 2988 
L 2350 3322 
L 3597 3322 
L 3597 2988 
L 3225 2988 
L 1703 -750 
Q 1547 -1138 1356 -1280 
Q 1166 -1422 819 -1422 
Q 672 -1422 517 -1397 
Q 363 -1372 206 -1325 
L 206 -691 
L 500 -691 
Q 519 -903 608 -995 
Q 697 -1088 884 -1088 
Q 1056 -1088 1161 -992 
Q 1266 -897 1381 -609 
z
" transform="scale(0.015625)"/>
       <path id="DejaVuSerif-28" d="M 2041 -997 
Q 1281 -656 893 83 
Q 506 822 506 1931 
Q 506 3044 893 3783 
Q 1281 4522 2041 4863 
L 2041 4556 
Q 1559 4225 1350 3623 
Q 1141 3022 1141 1931 
Q 1141 844 1350 242 
Q 1559 -359 2041 -691 
L 2041 -997 
z
" transform="scale(0.015625)"/>
       <path id="DejaVuSerif-6d" d="M 3316 2675 
Q 3481 3041 3739 3227 
Q 3997 3413 4341 3413 
Q 4863 3413 5119 3089 
Q 5375 2766 5375 2113 
L 5375 331 
L 5894 331 
L 5894 0 
L 4300 0 
L 4300 331 
L 4800 331 
L 4800 2047 
Q 4800 2556 4650 2772 
Q 4500 2988 4153 2988 
Q 3769 2988 3567 2697 
Q 3366 2406 3366 1850 
L 3366 331 
L 3866 331 
L 3866 0 
L 2291 0 
L 2291 331 
L 2791 331 
L 2791 2069 
Q 2791 2566 2641 2777 
Q 2491 2988 2144 2988 
Q 1759 2988 1557 2697 
Q 1356 2406 1356 1850 
L 1356 331 
L 1856 331 
L 1856 0 
L 263 0 
L 263 331 
L 781 331 
L 781 2994 
L 231 2994 
L 231 3322 
L 1356 3322 
L 1356 2731 
Q 1516 3063 1762 3238 
Q 2009 3413 2322 3413 
Q 2709 3413 2968 3220 
Q 3228 3028 3316 2675 
z
" transform="scale(0.015625)"/>
       <path id="DejaVuSerif-6c" d="M 1313 331 
L 1856 331 
L 1856 0 
L 184 0 
L 184 331 
L 738 331 
L 738 4531 
L 184 4531 
L 184 4863 
L 1313 4863 
L 1313 331 
z
" transform="scale(0.015625)"/>
       <path id="DejaVuSerif-7a" d="M 256 0 
L 256 269 
L 2338 2988 
L 691 2988 
L 691 2413 
L 359 2413 
L 359 3322 
L 3078 3322 
L 3078 3053 
L 997 331 
L 2803 331 
L 2803 934 
L 3138 934 
L 3138 0 
L 256 0 
z
" transform="scale(0.015625)"/>
       <path id="DejaVuSerif-64" d="M 3359 331 
L 3909 331 
L 3909 0 
L 2784 0 
L 2784 519 
Q 2616 206 2355 57 
Q 2094 -91 1709 -91 
Q 1097 -91 708 395 
Q 319 881 319 1663 
Q 319 2444 706 2928 
Q 1094 3413 1709 3413 
Q 2094 3413 2355 3264 
Q 2616 3116 2784 2803 
L 2784 4531 
L 2241 4531 
L 2241 4863 
L 3359 4863 
L 3359 331 
z
M 2784 1497 
L 2784 1825 
Q 2784 2422 2554 2737 
Q 2325 3053 1888 3053 
Q 1444 3053 1217 2703 
Q 991 2353 991 1663 
Q 991 975 1217 622 
Q 1444 269 1888 269 
Q 2325 269 2554 583 
Q 2784 897 2784 1497 
z
" transform="scale(0.015625)"/>
       <path id="DejaVuSerif-29" d="M 453 -997 
L 453 -691 
Q 934 -359 1145 242 
Q 1356 844 1356 1931 
Q 1356 3022 1145 3623 
Q 934 4225 453 4556 
L 453 4863 
Q 1216 4522 1603 3783 
Q 1991 3044 1991 1931 
Q 1991 822 1603 83 
Q 1216 -656 453 -997 
z
" transform="scale(0.015625)"/>
      </defs>
      <use xlink:href="#DejaVuSerif-50"/>
      <use xlink:href="#DejaVuSerif-65" transform="translate(62.785156 0)"/>
      <use xlink:href="#DejaVuSerif-72" transform="translate(121.964844 0)"/>
      <use xlink:href="#DejaVuSerif-74" transform="translate(169.767578 0)"/>
      <use xlink:href="#DejaVuSerif-75" transform="translate(209.953125 0)"/>
      <use xlink:href="#DejaVuSerif-72" transform="translate(274.357422 0)"/>
      <use xlink:href="#DejaVuSerif-62" transform="translate(322.160156 0)"/>
      <use xlink:href="#DejaVuSerif-61" transform="translate(386.173828 0)"/>
      <use xlink:href="#DejaVuSerif-74" transform="translate(445.792969 0)"/>
      <use xlink:href="#DejaVuSerif-69" transform="translate(485.978516 0)"/>
      <use xlink:href="#DejaVuSerif-6f" transform="translate(517.960938 0)"/>
      <use xlink:href="#DejaVuSerif-6e" transform="translate(578.166016 0)"/>
      <use xlink:href="#DejaVuSerif-20" transform="translate(642.570312 0)"/>
      <use xlink:href="#DejaVuSerif-49" transform="translate(674.357422 0)"/>
      <use xlink:href="#DejaVuSerif-6e" transform="translate(713.859375 0)"/>
      <use xlink:href="#DejaVuSerif-74" transform="translate(778.263672 0)"/>
      <use xlink:href="#DejaVuSerif-65" transform="translate(818.449219 0)"/>
      <use xlink:href="#DejaVuSerif-6e" transform="translate(877.628906 0)"/>
      <use xlink:href="#DejaVuSerif-73" transform="translate(942.033203 0)"/>
      <use xlink:href="#DejaVuSerif-69" transform="translate(993.351562 0)"/>
      <use xlink:href="#DejaVuSerif-74" transform="translate(1025.333984 0)"/>
      <use xlink:href="#DejaVuSerif-79" transform="translate(1065.519531 0)"/>
      <use xlink:href="#DejaVuSerif-20" transform="translate(1122.013672 0)"/>
      <use xlink:href="#DejaVuSerif-28" transform="translate(1153.800781 0)"/>
      <use xlink:href="#DejaVuSerif-6e" transform="translate(1192.814453 0)"/>
      <use xlink:href="#DejaVuSerif-6f" transform="translate(1257.21875 0)"/>
      <use xlink:href="#DejaVuSerif-72" transform="translate(1317.423828 0)"/>
      <use xlink:href="#DejaVuSerif-6d" transform="translate(1365.226562 0)"/>
      <use xlink:href="#DejaVuSerif-61" transform="translate(1460.050781 0)"/>
      <use xlink:href="#DejaVuSerif-6c" transform="translate(1519.669922 0)"/>
      <use xlink:href="#DejaVuSerif-69" transform="translate(1551.652344 0)"/>
      <use xlink:href="#DejaVuSerif-7a" transform="translate(1583.634766 0)"/>
      <use xlink:href="#DejaVuSerif-65" transform="translate(1636.320312 0)"/>
      <use xlink:href="#DejaVuSerif-64" transform="translate(1695.5 0)"/>
      <use xlink:href="#DejaVuSerif-29" transform="translate(1759.513672 0)"/>
     </g>
    </g>
   </g>
   <g id="matplotlib.axis_2">
    <g id="ytick_1">
     <g id="line2d_13">
      <path d="M 47.019375 202.756782 
L 704.745589 202.756782 
" clip-path="url(#pd4a4eee8b4)" style="fill: none; stroke-dasharray: 1.85,0.8; stroke-dashoffset: 0; stroke: #b0b0b0; stroke-opacity: 0.6; stroke-width: 0.5"/>
     </g>
     <g id="line2d_14">
      <defs>
       <path id="m9fc0a2a071" d="M 0 0 
L -3.5 0 
" style="stroke: #000000; stroke-width: 0.8"/>
      </defs>
      <g>
       <use xlink:href="#m9fc0a2a071" x="47.019375" y="202.756782" style="stroke: #000000; stroke-width: 0.8"/>
      </g>
     </g>
     <g id="text_8">
      <!-- 10 -->
      <g transform="translate(24.749375 207.315844) scale(0.12 -0.12)">
       <use xlink:href="#DejaVuSerif-31"/>
       <use xlink:href="#DejaVuSerif-30" transform="translate(63.623047 0)"/>
      </g>
     </g>
    </g>
    <g id="ytick_2">
     <g id="line2d_15">
      <path d="M 47.019375 158.970807 
L 704.745589 158.970807 
" clip-path="url(#pd4a4eee8b4)" style="fill: none; stroke-dasharray: 1.85,0.8; stroke-dashoffset: 0; stroke: #b0b0b0; stroke-opacity: 0.6; stroke-width: 0.5"/>
     </g>
     <g id="line2d_16">
      <g>
       <use xlink:href="#m9fc0a2a071" x="47.019375" y="158.970807" style="stroke: #000000; stroke-width: 0.8"/>
      </g>
     </g>
     <g id="text_9">
      <!-- 20 -->
      <g transform="translate(24.749375 163.52987) scale(0.12 -0.12)">
       <use xlink:href="#DejaVuSerif-32"/>
       <use xlink:href="#DejaVuSerif-30" transform="translate(63.623047 0)"/>
      </g>
     </g>
    </g>
    <g id="ytick_3">
     <g id="line2d_17">
      <path d="M 47.019375 115.184832 
L 704.745589 115.184832 
" clip-path="url(#pd4a4eee8b4)" style="fill: none; stroke-dasharray: 1.85,0.8; stroke-dashoffset: 0; stroke: #b0b0b0; stroke-opacity: 0.6; stroke-width: 0.5"/>
     </g>
     <g id="line2d_18">
      <g>
       <use xlink:href="#m9fc0a2a071" x="47.019375" y="115.184832" style="stroke: #000000; stroke-width: 0.8"/>
      </g>
     </g>
     <g id="text_10">
      <!-- 30 -->
      <g transform="translate(24.749375 119.743895) scale(0.12 -0.12)">
       <defs>
        <path id="DejaVuSerif-33" d="M 622 4469 
Q 988 4606 1323 4678 
Q 1659 4750 1953 4750 
Q 2638 4750 3022 4454 
Q 3406 4159 3406 3634 
Q 3406 3213 3140 2930 
Q 2875 2647 2388 2547 
Q 2963 2466 3280 2130 
Q 3597 1794 3597 1259 
Q 3597 606 3158 257 
Q 2719 -91 1894 -91 
Q 1528 -91 1179 -12 
Q 831 66 488 225 
L 488 1131 
L 838 1131 
Q 869 681 1141 450 
Q 1413 219 1906 219 
Q 2384 219 2661 495 
Q 2938 772 2938 1253 
Q 2938 1803 2653 2086 
Q 2369 2369 1819 2369 
L 1522 2369 
L 1522 2688 
L 1678 2688 
Q 2225 2688 2498 2914 
Q 2772 3141 2772 3597 
Q 2772 4006 2547 4223 
Q 2322 4441 1900 4441 
Q 1478 4441 1245 4241 
Q 1013 4041 972 3647 
L 622 3647 
L 622 4469 
z
" transform="scale(0.015625)"/>
       </defs>
       <use xlink:href="#DejaVuSerif-33"/>
       <use xlink:href="#DejaVuSerif-30" transform="translate(63.623047 0)"/>
      </g>
     </g>
    </g>
    <g id="ytick_4">
     <g id="line2d_19">
      <path d="M 47.019375 71.398858 
L 704.745589 71.398858 
" clip-path="url(#pd4a4eee8b4)" style="fill: none; stroke-dasharray: 1.85,0.8; stroke-dashoffset: 0; stroke: #b0b0b0; stroke-opacity: 0.6; stroke-width: 0.5"/>
     </g>
     <g id="line2d_20">
      <g>
       <use xlink:href="#m9fc0a2a071" x="47.019375" y="71.398858" style="stroke: #000000; stroke-width: 0.8"/>
      </g>
     </g>
     <g id="text_11">
      <!-- 40 -->
      <g transform="translate(24.749375 75.95792) scale(0.12 -0.12)">
       <use xlink:href="#DejaVuSerif-34"/>
       <use xlink:href="#DejaVuSerif-30" transform="translate(63.623047 0)"/>
      </g>
     </g>
    </g>
    <g id="ytick_5">
     <g id="line2d_21">
      <path d="M 47.019375 27.612883 
L 704.745589 27.612883 
" clip-path="url(#pd4a4eee8b4)" style="fill: none; stroke-dasharray: 1.85,0.8; stroke-dashoffset: 0; stroke: #b0b0b0; stroke-opacity: 0.6; stroke-width: 0.5"/>
     </g>
     <g id="line2d_22">
      <g>
       <use xlink:href="#m9fc0a2a071" x="47.019375" y="27.612883" style="stroke: #000000; stroke-width: 0.8"/>
      </g>
     </g>
     <g id="text_12">
      <!-- 50 -->
      <g transform="translate(24.749375 32.171945) scale(0.12 -0.12)">
       <defs>
        <path id="DejaVuSerif-35" d="M 3219 4666 
L 3219 4153 
L 1081 4153 
L 1081 2816 
Q 1244 2928 1461 2984 
Q 1678 3041 1947 3041 
Q 2703 3041 3140 2622 
Q 3578 2203 3578 1478 
Q 3578 738 3136 323 
Q 2694 -91 1894 -91 
Q 1572 -91 1234 -12 
Q 897 66 544 225 
L 544 1131 
L 897 1131 
Q 925 688 1179 453 
Q 1434 219 1894 219 
Q 2388 219 2653 544 
Q 2919 869 2919 1478 
Q 2919 2084 2655 2407 
Q 2391 2731 1894 2731 
Q 1613 2731 1398 2631 
Q 1184 2531 1019 2322 
L 750 2322 
L 750 4666 
L 3219 4666 
z
" transform="scale(0.015625)"/>
       </defs>
       <use xlink:href="#DejaVuSerif-35"/>
       <use xlink:href="#DejaVuSerif-30" transform="translate(63.623047 0)"/>
      </g>
     </g>
    </g>
    <g id="text_13">
     <!-- Full-Reference Recall (%) -->
     <g transform="translate(17.837812 213.176094) rotate(-90) scale(0.14 -0.14)">
      <defs>
       <path id="DejaVuSerif-46" d="M 353 0 
L 353 331 
L 947 331 
L 947 4331 
L 353 4331 
L 353 4666 
L 4172 4666 
L 4172 3628 
L 3788 3628 
L 3788 4281 
L 1581 4281 
L 1581 2719 
L 3175 2719 
L 3175 3303 
L 3559 3303 
L 3559 1753 
L 3175 1753 
L 3175 2338 
L 1581 2338 
L 1581 331 
L 2328 331 
L 2328 0 
L 353 0 
z
" transform="scale(0.015625)"/>
       <path id="DejaVuSerif-2d" d="M 281 1959 
L 1881 1959 
L 1881 1472 
L 281 1472 
L 281 1959 
z
" transform="scale(0.015625)"/>
       <path id="DejaVuSerif-52" d="M 3066 2316 
Q 3284 2256 3442 2114 
Q 3600 1972 3725 1716 
L 4403 331 
L 4972 331 
L 4972 0 
L 3872 0 
L 3144 1484 
Q 2934 1916 2759 2042 
Q 2584 2169 2278 2169 
L 1581 2169 
L 1581 331 
L 2241 331 
L 2241 0 
L 353 0 
L 353 331 
L 947 331 
L 947 4331 
L 353 4331 
L 353 4666 
L 2719 4666 
Q 3400 4666 3770 4341 
Q 4141 4016 4141 3419 
Q 4141 2938 3870 2661 
Q 3600 2384 3066 2316 
z
M 1581 2503 
L 2503 2503 
Q 2975 2503 3200 2726 
Q 3425 2950 3425 3419 
Q 3425 3888 3200 4109 
Q 2975 4331 2503 4331 
L 1581 4331 
L 1581 2503 
z
" transform="scale(0.015625)"/>
       <path id="DejaVuSerif-66" d="M 2753 4078 
L 2450 4078 
Q 2447 4313 2317 4434 
Q 2188 4556 1941 4556 
Q 1619 4556 1487 4379 
Q 1356 4203 1356 3750 
L 1356 3322 
L 2284 3322 
L 2284 2988 
L 1356 2988 
L 1356 331 
L 2094 331 
L 2094 0 
L 231 0 
L 231 331 
L 781 331 
L 781 2988 
L 231 2988 
L 231 3322 
L 781 3322 
L 781 3738 
Q 781 4294 1070 4578 
Q 1359 4863 1919 4863 
Q 2128 4863 2337 4825 
Q 2547 4788 2753 4709 
L 2753 4078 
z
" transform="scale(0.015625)"/>
       <path id="DejaVuSerif-63" d="M 3291 997 
Q 3169 466 2822 187 
Q 2475 -91 1925 -91 
Q 1200 -91 759 389 
Q 319 869 319 1663 
Q 319 2459 759 2936 
Q 1200 3413 1925 3413 
Q 2241 3413 2553 3339 
Q 2866 3266 3181 3116 
L 3181 2266 
L 2847 2266 
Q 2781 2703 2561 2903 
Q 2341 3103 1931 3103 
Q 1466 3103 1228 2742 
Q 991 2381 991 1663 
Q 991 944 1227 581 
Q 1463 219 1931 219 
Q 2303 219 2525 412 
Q 2747 606 2828 997 
L 3291 997 
z
" transform="scale(0.015625)"/>
       <path id="DejaVuSerif-25" d="M 1434 4459 
Q 1159 4459 1004 4200 
Q 850 3941 850 3475 
Q 850 3016 1008 2753 
Q 1166 2491 1434 2491 
Q 1700 2491 1854 2752 
Q 2009 3013 2009 3475 
Q 2009 3938 1854 4198 
Q 1700 4459 1434 4459 
z
M 4653 2169 
Q 4381 2169 4226 1906 
Q 4072 1644 4072 1178 
Q 4072 719 4228 458 
Q 4384 197 4653 197 
Q 4922 197 5075 458 
Q 5228 719 5228 1178 
Q 5228 1641 5073 1905 
Q 4919 2169 4653 2169 
z
M 4653 2450 
Q 5147 2450 5437 2106 
Q 5728 1763 5728 1178 
Q 5728 594 5436 251 
Q 5144 -91 4653 -91 
Q 4153 -91 3862 251 
Q 3572 594 3572 1178 
Q 3572 1766 3864 2108 
Q 4156 2450 4653 2450 
z
M 4263 4750 
L 4738 4750 
L 1819 -91 
L 1344 -91 
L 4263 4750 
z
M 1428 4750 
Q 1922 4750 2215 4408 
Q 2509 4066 2509 3481 
Q 2509 2891 2217 2550 
Q 1925 2209 1428 2209 
Q 931 2209 642 2551 
Q 353 2894 353 3481 
Q 353 4063 643 4406 
Q 934 4750 1428 4750 
z
" transform="scale(0.015625)"/>
      </defs>
      <use xlink:href="#DejaVuSerif-46"/>
      <use xlink:href="#DejaVuSerif-75" transform="translate(69.384766 0)"/>
      <use xlink:href="#DejaVuSerif-6c" transform="translate(133.789062 0)"/>
      <use xlink:href="#DejaVuSerif-6c" transform="translate(165.771484 0)"/>
      <use xlink:href="#DejaVuSerif-2d" transform="translate(197.753906 0)"/>
      <use xlink:href="#DejaVuSerif-52" transform="translate(231.542969 0)"/>
      <use xlink:href="#DejaVuSerif-65" transform="translate(306.835938 0)"/>
      <use xlink:href="#DejaVuSerif-66" transform="translate(366.015625 0)"/>
      <use xlink:href="#DejaVuSerif-65" transform="translate(403.027344 0)"/>
      <use xlink:href="#DejaVuSerif-72" transform="translate(462.207031 0)"/>
      <use xlink:href="#DejaVuSerif-65" transform="translate(510.009766 0)"/>
      <use xlink:href="#DejaVuSerif-6e" transform="translate(569.189453 0)"/>
      <use xlink:href="#DejaVuSerif-63" transform="translate(633.59375 0)"/>
      <use xlink:href="#DejaVuSerif-65" transform="translate(689.599609 0)"/>
      <use xlink:href="#DejaVuSerif-20" transform="translate(748.779297 0)"/>
      <use xlink:href="#DejaVuSerif-52" transform="translate(780.566406 0)"/>
      <use xlink:href="#DejaVuSerif-65" transform="translate(855.859375 0)"/>
      <use xlink:href="#DejaVuSerif-63" transform="translate(915.039062 0)"/>
      <use xlink:href="#DejaVuSerif-61" transform="translate(971.044922 0)"/>
      <use xlink:href="#DejaVuSerif-6c" transform="translate(1030.664062 0)"/>
      <use xlink:href="#DejaVuSerif-6c" transform="translate(1062.646484 0)"/>
      <use xlink:href="#DejaVuSerif-20" transform="translate(1094.628906 0)"/>
      <use xlink:href="#DejaVuSerif-28" transform="translate(1126.416016 0)"/>
      <use xlink:href="#DejaVuSerif-25" transform="translate(1165.429688 0)"/>
      <use xlink:href="#DejaVuSerif-29" transform="translate(1260.449219 0)"/>
     </g>
    </g>
   </g>
   <g id="line2d_23">
    <path d="M 695.167052 178.255823 
L 672.796795 119.175631 
L 626.022622 61.561118 
L 544.676235 47.241912 
L 422.656654 39.847654 
L 97.271106 30.688773 
L 56.597912 17.655455 
" clip-path="url(#pd4a4eee8b4)" style="fill: none; stroke-dasharray: 2.5,4.125; stroke-dashoffset: 0; stroke: #00775f; stroke-width: 2.5"/>
   </g>
   <g id="line2d_24">
    <path d="M 56.597912 40.951243 
L 120.454826 52.102503 
L 184.31174 80.675589 
L 248.168654 95.096844 
L 312.025568 115.297262 
L 375.882482 131.538168 
L 439.739396 159.801336 
L 503.59631 170.211908 
L 567.453224 192.728438 
L 631.310138 208.546885 
L 695.167052 213.250201 
" clip-path="url(#pd4a4eee8b4)" style="fill: none; stroke-dasharray: 9.25,4; stroke-dashoffset: 0; stroke: #3a87b7; stroke-width: 2.5"/>
   </g>
   <g id="line2d_25">
    <path d="M 56.597912 45.190407 
L 147.822075 43.467013 
L 239.046238 52.01607 
L 330.2704 70.530354 
L 421.494563 101.383783 
L 512.718726 134.375729 
L 603.942889 168.858718 
L 695.167052 197.698487 
" clip-path="url(#pd4a4eee8b4)" style="fill: none; stroke: #c07d00; stroke-width: 2.5; stroke-linecap: square"/>
   </g>
   <g id="line2d_26">
    <path d="M 695.167052 226.764545 
L 643.895077 204.145657 
L 634.5729 113.795373 
L 578.639836 114.159875 
L 410.840646 62.584516 
L 56.597912 50.648809 
" clip-path="url(#pd4a4eee8b4)" style="fill: none; stroke-dasharray: 16,4,2.5,4; stroke-dashoffset: 0; stroke: #cfc632; stroke-width: 2.5"/>
   </g>
   <g id="patch_3">
    <path d="M 47.019375 237.22 
L 47.019375 7.2 
" style="fill: none; stroke: #000000; stroke-width: 0.8; stroke-linejoin: miter; stroke-linecap: square"/>
   </g>
   <g id="patch_4">
    <path d="M 704.745589 237.22 
L 704.745589 7.2 
" style="fill: none; stroke: #000000; stroke-width: 0.8; stroke-linejoin: miter; stroke-linecap: square"/>
   </g>
   <g id="patch_5">
    <path d="M 47.019375 237.22 
L 704.745589 237.22 
" style="fill: none; stroke: #000000; stroke-width: 0.8; stroke-linejoin: miter; stroke-linecap: square"/>
   </g>
   <g id="patch_6">
    <path d="M 47.019375 7.2 
L 704.745589 7.2 
" style="fill: none; stroke: #000000; stroke-width: 0.8; stroke-linejoin: miter; stroke-linecap: square"/>
   </g>
   <g id="legend_1">
    <g id="patch_7">
     <path d="M 218.450928 230.748425 
L 449.121241 230.748425 
Q 451.121241 230.748425 451.121241 228.748425 
L 451.121241 138.4108 
Q 451.121241 136.4108 449.121241 136.4108 
L 218.450928 136.4108 
Q 216.450928 136.4108 216.450928 138.4108 
L 216.450928 228.748425 
Q 216.450928 230.748425 218.450928 230.748425 
z
" style="fill: #ffffff; opacity: 0.8; stroke: #cccccc; stroke-linejoin: miter"/>
    </g>
    <g id="text_14">
     <!-- Δ Value Recall in % Points -->
     <g transform="translate(247.577803 150.288769) scale(0.13 -0.13)">
      <defs>
       <path id="DejaVuSerif-394" d="M 4350 0 
L 244 0 
L 2034 4666 
L 2559 4666 
L 4350 0 
z
M 3506 331 
L 2138 3909 
L 763 331 
L 3506 331 
z
" transform="scale(0.015625)"/>
       <path id="DejaVuSerif-56" d="M 1119 4331 
L 2497 750 
L 3872 4331 
L 3347 4331 
L 3347 4666 
L 4716 4666 
L 4716 4331 
L 4263 4331 
L 2597 0 
L 2059 0 
L 403 4331 
L -63 4331 
L -63 4666 
L 1638 4666 
L 1638 4331 
L 1119 4331 
z
" transform="scale(0.015625)"/>
      </defs>
      <use xlink:href="#DejaVuSerif-394"/>
      <use xlink:href="#DejaVuSerif-20" transform="translate(72.216797 0)"/>
      <use xlink:href="#DejaVuSerif-56" transform="translate(104.003906 0)"/>
      <use xlink:href="#DejaVuSerif-61" transform="translate(167.095703 0)"/>
      <use xlink:href="#DejaVuSerif-6c" transform="translate(226.714844 0)"/>
      <use xlink:href="#DejaVuSerif-75" transform="translate(258.697266 0)"/>
      <use xlink:href="#DejaVuSerif-65" transform="translate(323.101562 0)"/>
      <use xlink:href="#DejaVuSerif-20" transform="translate(382.28125 0)"/>
      <use xlink:href="#DejaVuSerif-52" transform="translate(414.068359 0)"/>
      <use xlink:href="#DejaVuSerif-65" transform="translate(489.361328 0)"/>
      <use xlink:href="#DejaVuSerif-63" transform="translate(548.541016 0)"/>
      <use xlink:href="#DejaVuSerif-61" transform="translate(604.546875 0)"/>
      <use xlink:href="#DejaVuSerif-6c" transform="translate(664.166016 0)"/>
      <use xlink:href="#DejaVuSerif-6c" transform="translate(696.148438 0)"/>
      <use xlink:href="#DejaVuSerif-20" transform="translate(728.130859 0)"/>
      <use xlink:href="#DejaVuSerif-69" transform="translate(759.917969 0)"/>
      <use xlink:href="#DejaVuSerif-6e" transform="translate(791.900391 0)"/>
      <use xlink:href="#DejaVuSerif-20" transform="translate(856.304688 0)"/>
      <use xlink:href="#DejaVuSerif-25" transform="translate(888.091797 0)"/>
      <use xlink:href="#DejaVuSerif-20" transform="translate(983.111328 0)"/>
      <use xlink:href="#DejaVuSerif-50" transform="translate(1014.898438 0)"/>
      <use xlink:href="#DejaVuSerif-6f" transform="translate(1078.183594 0)"/>
      <use xlink:href="#DejaVuSerif-69" transform="translate(1138.388672 0)"/>
      <use xlink:href="#DejaVuSerif-6e" transform="translate(1170.371094 0)"/>
      <use xlink:href="#DejaVuSerif-74" transform="translate(1234.775391 0)"/>
      <use xlink:href="#DejaVuSerif-73" transform="translate(1274.960938 0)"/>
     </g>
     <!-- Perturbation Intensity 0-1 -->
     <g transform="translate(247.577803 164.845925) scale(0.13 -0.13)">
      <use xlink:href="#DejaVuSerif-50"/>
      <use xlink:href="#DejaVuSerif-65" transform="translate(62.785156 0)"/>
      <use xlink:href="#DejaVuSerif-72" transform="translate(121.964844 0)"/>
      <use xlink:href="#DejaVuSerif-74" transform="translate(169.767578 0)"/>
      <use xlink:href="#DejaVuSerif-75" transform="translate(209.953125 0)"/>
      <use xlink:href="#DejaVuSerif-72" transform="translate(274.357422 0)"/>
      <use xlink:href="#DejaVuSerif-62" transform="translate(322.160156 0)"/>
      <use xlink:href="#DejaVuSerif-61" transform="translate(386.173828 0)"/>
      <use xlink:href="#DejaVuSerif-74" transform="translate(445.792969 0)"/>
      <use xlink:href="#DejaVuSerif-69" transform="translate(485.978516 0)"/>
      <use xlink:href="#DejaVuSerif-6f" transform="translate(517.960938 0)"/>
      <use xlink:href="#DejaVuSerif-6e" transform="translate(578.166016 0)"/>
      <use xlink:href="#DejaVuSerif-20" transform="translate(642.570312 0)"/>
      <use xlink:href="#DejaVuSerif-49" transform="translate(674.357422 0)"/>
      <use xlink:href="#DejaVuSerif-6e" transform="translate(713.859375 0)"/>
      <use xlink:href="#DejaVuSerif-74" transform="translate(778.263672 0)"/>
      <use xlink:href="#DejaVuSerif-65" transform="translate(818.449219 0)"/>
      <use xlink:href="#DejaVuSerif-6e" transform="translate(877.628906 0)"/>
      <use xlink:href="#DejaVuSerif-73" transform="translate(942.033203 0)"/>
      <use xlink:href="#DejaVuSerif-69" transform="translate(993.351562 0)"/>
      <use xlink:href="#DejaVuSerif-74" transform="translate(1025.333984 0)"/>
      <use xlink:href="#DejaVuSerif-79" transform="translate(1065.519531 0)"/>
      <use xlink:href="#DejaVuSerif-20" transform="translate(1122.013672 0)"/>
      <use xlink:href="#DejaVuSerif-30" transform="translate(1153.800781 0)"/>
      <use xlink:href="#DejaVuSerif-2d" transform="translate(1217.423828 0)"/>
      <use xlink:href="#DejaVuSerif-31" transform="translate(1251.212891 0)"/>
     </g>
    </g>
    <g id="line2d_27">
     <path d="M 220.450928 176.885925 
L 230.450928 176.885925 
L 240.450928 176.885925 
" style="fill: none; stroke-dasharray: 2.5,4.125; stroke-dashoffset: 0; stroke: #00775f; stroke-width: 2.5"/>
    </g>
    <g id="text_15">
     <!-- size (qwen3)    32b – 0.6b Δ=37pp -->
     <g transform="translate(248.450928 180.385925) scale(0.1 -0.1)">
      <defs>
       <path id="DejaVuSansMono-73" d="M 3041 3378 
L 3041 2816 
Q 2794 2959 2544 3031 
Q 2294 3103 2034 3103 
Q 1644 3103 1451 2976 
Q 1259 2850 1259 2591 
Q 1259 2356 1403 2240 
Q 1547 2125 2119 2016 
L 2350 1972 
Q 2778 1891 2998 1647 
Q 3219 1403 3219 1013 
Q 3219 494 2850 201 
Q 2481 -91 1825 -91 
Q 1566 -91 1281 -36 
Q 997 19 666 128 
L 666 722 
Q 988 556 1281 473 
Q 1575 391 1838 391 
Q 2219 391 2428 545 
Q 2638 700 2638 978 
Q 2638 1378 1872 1531 
L 1847 1538 
L 1631 1581 
Q 1134 1678 906 1908 
Q 678 2138 678 2534 
Q 678 3038 1018 3311 
Q 1359 3584 1991 3584 
Q 2272 3584 2531 3532 
Q 2791 3481 3041 3378 
z
" transform="scale(0.015625)"/>
       <path id="DejaVuSansMono-69" d="M 800 3500 
L 2272 3500 
L 2272 447 
L 3413 447 
L 3413 0 
L 556 0 
L 556 447 
L 1697 447 
L 1697 3053 
L 800 3053 
L 800 3500 
z
M 1697 4863 
L 2272 4863 
L 2272 4134 
L 1697 4134 
L 1697 4863 
z
" transform="scale(0.015625)"/>
       <path id="DejaVuSansMono-7a" d="M 709 3506 
L 3250 3506 
L 3250 2981 
L 1241 469 
L 3250 469 
L 3250 0 
L 634 0 
L 634 531 
L 2644 3047 
L 709 3047 
L 709 3506 
z
" transform="scale(0.015625)"/>
       <path id="DejaVuSansMono-65" d="M 3475 1894 
L 3475 1613 
L 984 1613 
L 984 1594 
Q 984 1022 1282 709 
Q 1581 397 2125 397 
Q 2400 397 2700 484 
Q 3000 572 3341 750 
L 3341 178 
Q 3013 44 2708 -23 
Q 2403 -91 2119 -91 
Q 1303 -91 843 398 
Q 384 888 384 1747 
Q 384 2584 834 3084 
Q 1284 3584 2034 3584 
Q 2703 3584 3089 3131 
Q 3475 2678 3475 1894 
z
M 2900 2063 
Q 2888 2569 2661 2833 
Q 2434 3097 2009 3097 
Q 1594 3097 1325 2822 
Q 1056 2547 1006 2059 
L 2900 2063 
z
" transform="scale(0.015625)"/>
       <path id="DejaVuSansMono-20" transform="scale(0.015625)"/>
       <path id="DejaVuSansMono-28" d="M 2766 4856 
Q 2350 4144 2145 3436 
Q 1941 2728 1941 2009 
Q 1941 1294 2145 584 
Q 2350 -125 2766 -844 
L 2266 -844 
Q 1794 -100 1562 604 
Q 1331 1309 1331 2009 
Q 1331 2706 1562 3412 
Q 1794 4119 2266 4856 
L 2766 4856 
z
" transform="scale(0.015625)"/>
       <path id="DejaVuSansMono-71" d="M 1038 1734 
Q 1038 1066 1248 725 
Q 1459 384 1875 384 
Q 2291 384 2505 726 
Q 2719 1069 2719 1734 
Q 2719 2400 2505 2742 
Q 2291 3084 1875 3084 
Q 1459 3084 1248 2743 
Q 1038 2403 1038 1734 
z
M 2719 434 
Q 2578 175 2339 36 
Q 2100 -103 1784 -103 
Q 1156 -103 792 383 
Q 428 869 428 1722 
Q 428 2591 790 3081 
Q 1153 3572 1784 3572 
Q 2097 3572 2336 3436 
Q 2575 3300 2719 3041 
L 2719 3488 
L 3297 3488 
L 3297 -1344 
L 2719 -1344 
L 2719 434 
z
" transform="scale(0.015625)"/>
       <path id="DejaVuSansMono-77" d="M 0 3500 
L 569 3500 
L 1178 672 
L 1678 2478 
L 2169 2478 
L 2675 672 
L 3284 3500 
L 3853 3500 
L 3034 0 
L 2484 0 
L 1925 1919 
L 1369 0 
L 819 0 
L 0 3500 
z
" transform="scale(0.015625)"/>
       <path id="DejaVuSansMono-6e" d="M 3284 2169 
L 3284 0 
L 2706 0 
L 2706 2169 
Q 2706 2641 2540 2862 
Q 2375 3084 2022 3084 
Q 1619 3084 1401 2798 
Q 1184 2513 1184 1978 
L 1184 0 
L 609 0 
L 609 3500 
L 1184 3500 
L 1184 2975 
Q 1338 3275 1600 3429 
Q 1863 3584 2222 3584 
Q 2756 3584 3020 3232 
Q 3284 2881 3284 2169 
z
" transform="scale(0.015625)"/>
       <path id="DejaVuSansMono-33" d="M 2425 2497 
Q 2884 2375 3128 2064 
Q 3372 1753 3372 1288 
Q 3372 644 2939 276 
Q 2506 -91 1741 -91 
Q 1419 -91 1084 -31 
Q 750 28 428 141 
L 428 769 
Q 747 603 1056 522 
Q 1366 441 1672 441 
Q 2191 441 2469 675 
Q 2747 909 2747 1350 
Q 2747 1756 2469 1995 
Q 2191 2234 1716 2234 
L 1234 2234 
L 1234 2753 
L 1716 2753 
Q 2150 2753 2394 2943 
Q 2638 3134 2638 3475 
Q 2638 3834 2411 4026 
Q 2184 4219 1766 4219 
Q 1488 4219 1191 4156 
Q 894 4094 569 3969 
L 569 4550 
Q 947 4650 1242 4700 
Q 1538 4750 1766 4750 
Q 2447 4750 2855 4408 
Q 3263 4066 3263 3500 
Q 3263 3116 3048 2859 
Q 2834 2603 2425 2497 
z
" transform="scale(0.015625)"/>
       <path id="DejaVuSansMono-29" d="M 1088 4856 
L 1588 4856 
Q 2059 4119 2290 3412 
Q 2522 2706 2522 2009 
Q 2522 1306 2290 600 
Q 2059 -106 1588 -844 
L 1088 -844 
Q 1503 -119 1708 590 
Q 1913 1300 1913 2009 
Q 1913 2722 1708 3431 
Q 1503 4141 1088 4856 
z
" transform="scale(0.015625)"/>
       <path id="DejaVuSansMono-32" d="M 1166 531 
L 3309 531 
L 3309 0 
L 475 0 
L 475 531 
Q 1059 1147 1496 1619 
Q 1934 2091 2100 2284 
Q 2413 2666 2522 2902 
Q 2631 3138 2631 3384 
Q 2631 3775 2401 3997 
Q 2172 4219 1772 4219 
Q 1488 4219 1175 4116 
Q 863 4013 513 3803 
L 513 4441 
Q 834 4594 1145 4672 
Q 1456 4750 1759 4750 
Q 2444 4750 2861 4386 
Q 3278 4022 3278 3431 
Q 3278 3131 3139 2831 
Q 3000 2531 2688 2169 
Q 2513 1966 2180 1606 
Q 1847 1247 1166 531 
z
" transform="scale(0.015625)"/>
       <path id="DejaVuSansMono-62" d="M 2869 1747 
Q 2869 2416 2656 2756 
Q 2444 3097 2028 3097 
Q 1609 3097 1393 2755 
Q 1178 2413 1178 1747 
Q 1178 1084 1393 740 
Q 1609 397 2028 397 
Q 2444 397 2656 737 
Q 2869 1078 2869 1747 
z
M 1178 3053 
Q 1316 3309 1558 3446 
Q 1800 3584 2119 3584 
Q 2750 3584 3112 3098 
Q 3475 2613 3475 1759 
Q 3475 894 3111 401 
Q 2747 -91 2113 -91 
Q 1800 -91 1561 45 
Q 1322 181 1178 441 
L 1178 0 
L 603 0 
L 603 4863 
L 1178 4863 
L 1178 3053 
z
" transform="scale(0.015625)"/>
       <path id="DejaVuSansMono-2013" d="M 0 1978 
L 3853 1978 
L 3853 1538 
L 0 1538 
L 0 1978 
z
" transform="scale(0.015625)"/>
       <path id="DejaVuSansMono-30" d="M 1509 2344 
Q 1509 2516 1629 2641 
Q 1750 2766 1919 2766 
Q 2094 2766 2219 2641 
Q 2344 2516 2344 2344 
Q 2344 2169 2220 2047 
Q 2097 1925 1919 1925 
Q 1744 1925 1626 2044 
Q 1509 2163 1509 2344 
z
M 1925 4250 
Q 1484 4250 1267 3775 
Q 1050 3300 1050 2328 
Q 1050 1359 1267 884 
Q 1484 409 1925 409 
Q 2369 409 2586 884 
Q 2803 1359 2803 2328 
Q 2803 3300 2586 3775 
Q 2369 4250 1925 4250 
z
M 1925 4750 
Q 2672 4750 3055 4137 
Q 3438 3525 3438 2328 
Q 3438 1134 3055 521 
Q 2672 -91 1925 -91 
Q 1178 -91 797 521 
Q 416 1134 416 2328 
Q 416 3525 797 4137 
Q 1178 4750 1925 4750 
z
" transform="scale(0.015625)"/>
       <path id="DejaVuSansMono-2e" d="M 1528 953 
L 2316 953 
L 2316 0 
L 1528 0 
L 1528 953 
z
" transform="scale(0.015625)"/>
       <path id="DejaVuSansMono-36" d="M 3097 4563 
L 3097 3981 
Q 2900 4097 2678 4158 
Q 2456 4219 2216 4219 
Q 1616 4219 1306 3767 
Q 997 3316 997 2438 
Q 1147 2750 1412 2917 
Q 1678 3084 2022 3084 
Q 2697 3084 3067 2670 
Q 3438 2256 3438 1497 
Q 3438 741 3056 325 
Q 2675 -91 1984 -91 
Q 1172 -91 794 492 
Q 416 1075 416 2328 
Q 416 3509 870 4129 
Q 1325 4750 2188 4750 
Q 2419 4750 2650 4701 
Q 2881 4653 3097 4563 
z
M 1972 2591 
Q 1569 2591 1337 2300 
Q 1106 2009 1106 1497 
Q 1106 984 1337 693 
Q 1569 403 1972 403 
Q 2391 403 2603 679 
Q 2816 956 2816 1497 
Q 2816 2041 2603 2316 
Q 2391 2591 1972 2591 
z
" transform="scale(0.015625)"/>
       <path id="DejaVuSansMono-394" d="M 2931 531 
L 1925 4109 
L 919 531 
L 2931 531 
z
M 3738 0 
L 116 0 
L 1544 4666 
L 2309 4666 
L 3738 0 
z
" transform="scale(0.015625)"/>
       <path id="DejaVuSansMono-3d" d="M 275 1638 
L 3578 1638 
L 3578 1100 
L 275 1100 
L 275 1638 
z
M 275 2906 
L 3578 2906 
L 3578 2375 
L 275 2375 
L 275 2906 
z
" transform="scale(0.015625)"/>
       <path id="DejaVuSansMono-37" d="M 434 4666 
L 3372 4666 
L 3372 4397 
L 1703 0 
L 1044 0 
L 2669 4134 
L 434 4134 
L 434 4666 
z
" transform="scale(0.015625)"/>
       <path id="DejaVuSansMono-70" d="M 1172 441 
L 1172 -1331 
L 594 -1331 
L 594 3500 
L 1172 3500 
L 1172 3053 
Q 1316 3313 1555 3448 
Q 1794 3584 2106 3584 
Q 2741 3584 3102 3093 
Q 3463 2603 3463 1734 
Q 3463 881 3100 395 
Q 2738 -91 2106 -91 
Q 1788 -91 1548 45 
Q 1309 181 1172 441 
z
M 2859 1747 
Q 2859 2416 2648 2756 
Q 2438 3097 2022 3097 
Q 1603 3097 1387 2755 
Q 1172 2413 1172 1747 
Q 1172 1084 1387 740 
Q 1603 397 2022 397 
Q 2438 397 2648 737 
Q 2859 1078 2859 1747 
z
" transform="scale(0.015625)"/>
      </defs>
      <use xlink:href="#DejaVuSansMono-73"/>
      <use xlink:href="#DejaVuSansMono-69" transform="translate(60.205078 0)"/>
      <use xlink:href="#DejaVuSansMono-7a" transform="translate(120.410156 0)"/>
      <use xlink:href="#DejaVuSansMono-65" transform="translate(180.615234 0)"/>
      <use xlink:href="#DejaVuSansMono-20" transform="translate(240.820312 0)"/>
      <use xlink:href="#DejaVuSansMono-28" transform="translate(301.025391 0)"/>
      <use xlink:href="#DejaVuSansMono-71" transform="translate(361.230469 0)"/>
      <use xlink:href="#DejaVuSansMono-77" transform="translate(421.435547 0)"/>
      <use xlink:href="#DejaVuSansMono-65" transform="translate(481.640625 0)"/>
      <use xlink:href="#DejaVuSansMono-6e" transform="translate(541.845703 0)"/>
      <use xlink:href="#DejaVuSansMono-33" transform="translate(602.050781 0)"/>
      <use xlink:href="#DejaVuSansMono-29" transform="translate(662.255859 0)"/>
      <use xlink:href="#DejaVuSansMono-20" transform="translate(722.460938 0)"/>
      <use xlink:href="#DejaVuSansMono-20" transform="translate(782.666016 0)"/>
      <use xlink:href="#DejaVuSansMono-20" transform="translate(842.871094 0)"/>
      <use xlink:href="#DejaVuSansMono-20" transform="translate(903.076172 0)"/>
      <use xlink:href="#DejaVuSansMono-33" transform="translate(963.28125 0)"/>
      <use xlink:href="#DejaVuSansMono-32" transform="translate(1023.486328 0)"/>
      <use xlink:href="#DejaVuSansMono-62" transform="translate(1083.691406 0)"/>
      <use xlink:href="#DejaVuSansMono-20" transform="translate(1143.896484 0)"/>
      <use xlink:href="#DejaVuSansMono-2013" transform="translate(1204.101562 0)"/>
      <use xlink:href="#DejaVuSansMono-20" transform="translate(1264.306641 0)"/>
      <use xlink:href="#DejaVuSansMono-30" transform="translate(1324.511719 0)"/>
      <use xlink:href="#DejaVuSansMono-2e" transform="translate(1384.716797 0)"/>
      <use xlink:href="#DejaVuSansMono-36" transform="translate(1444.921875 0)"/>
      <use xlink:href="#DejaVuSansMono-62" transform="translate(1505.126953 0)"/>
      <use xlink:href="#DejaVuSansMono-20" transform="translate(1565.332031 0)"/>
      <use xlink:href="#DejaVuSansMono-394" transform="translate(1625.537109 0)"/>
      <use xlink:href="#DejaVuSansMono-3d" transform="translate(1685.742188 0)"/>
      <use xlink:href="#DejaVuSansMono-33" transform="translate(1745.947266 0)"/>
      <use xlink:href="#DejaVuSansMono-37" transform="translate(1806.152344 0)"/>
      <use xlink:href="#DejaVuSansMono-70" transform="translate(1866.357422 0)"/>
      <use xlink:href="#DejaVuSansMono-70" transform="translate(1926.5625 0)"/>
     </g>
    </g>
    <g id="line2d_28">
     <path d="M 220.450928 191.637487 
L 230.450928 191.637487 
L 240.450928 191.637487 
" style="fill: none; stroke-dasharray: 9.25,4; stroke-dashoffset: 0; stroke: #3a87b7; stroke-width: 2.5"/>
    </g>
    <g id="text_16">
     <!-- degraded prompt 0.0 – 1.0  Δ=39pp -->
     <g transform="translate(248.450928 195.137487) scale(0.1 -0.1)">
      <defs>
       <path id="DejaVuSansMono-64" d="M 2681 3053 
L 2681 4863 
L 3256 4863 
L 3256 0 
L 2681 0 
L 2681 441 
Q 2538 181 2298 45 
Q 2059 -91 1747 -91 
Q 1113 -91 748 401 
Q 384 894 384 1759 
Q 384 2613 750 3098 
Q 1116 3584 1747 3584 
Q 2063 3584 2303 3448 
Q 2544 3313 2681 3053 
z
M 991 1747 
Q 991 1078 1203 737 
Q 1416 397 1831 397 
Q 2247 397 2464 740 
Q 2681 1084 2681 1747 
Q 2681 2413 2464 2755 
Q 2247 3097 1831 3097 
Q 1416 3097 1203 2756 
Q 991 2416 991 1747 
z
" transform="scale(0.015625)"/>
       <path id="DejaVuSansMono-67" d="M 2681 1778 
Q 2681 2425 2470 2761 
Q 2259 3097 1856 3097 
Q 1434 3097 1212 2761 
Q 991 2425 991 1778 
Q 991 1131 1214 792 
Q 1438 453 1863 453 
Q 2259 453 2470 793 
Q 2681 1134 2681 1778 
z
M 3256 225 
Q 3256 -563 2884 -969 
Q 2513 -1375 1791 -1375 
Q 1553 -1375 1293 -1331 
Q 1034 -1288 775 -1203 
L 775 -634 
Q 1081 -778 1331 -847 
Q 1581 -916 1791 -916 
Q 2256 -916 2468 -662 
Q 2681 -409 2681 141 
L 2681 166 
L 2681 556 
Q 2544 263 2306 119 
Q 2069 -25 1728 -25 
Q 1116 -25 750 465 
Q 384 956 384 1778 
Q 384 2603 750 3093 
Q 1116 3584 1728 3584 
Q 2066 3584 2300 3450 
Q 2534 3316 2681 3034 
L 2681 3488 
L 3256 3488 
L 3256 225 
z
" transform="scale(0.015625)"/>
       <path id="DejaVuSansMono-72" d="M 3609 2778 
Q 3425 2922 3234 2987 
Q 3044 3053 2816 3053 
Q 2278 3053 1993 2715 
Q 1709 2378 1709 1741 
L 1709 0 
L 1131 0 
L 1131 3500 
L 1709 3500 
L 1709 2816 
Q 1853 3188 2151 3386 
Q 2450 3584 2859 3584 
Q 3072 3584 3256 3531 
Q 3441 3478 3609 3366 
L 3609 2778 
z
" transform="scale(0.015625)"/>
       <path id="DejaVuSansMono-61" d="M 2194 1759 
L 2003 1759 
Q 1500 1759 1245 1582 
Q 991 1406 991 1056 
Q 991 741 1181 566 
Q 1372 391 1709 391 
Q 2184 391 2456 720 
Q 2728 1050 2731 1631 
L 2731 1759 
L 2194 1759 
z
M 3309 1997 
L 3309 0 
L 2731 0 
L 2731 519 
Q 2547 206 2267 57 
Q 1988 -91 1588 -91 
Q 1053 -91 734 211 
Q 416 513 416 1019 
Q 416 1603 808 1906 
Q 1200 2209 1959 2209 
L 2731 2209 
L 2731 2300 
Q 2728 2719 2518 2908 
Q 2309 3097 1850 3097 
Q 1556 3097 1256 3012 
Q 956 2928 672 2766 
L 672 3341 
Q 991 3463 1283 3523 
Q 1575 3584 1850 3584 
Q 2284 3584 2592 3456 
Q 2900 3328 3091 3072 
Q 3209 2916 3259 2686 
Q 3309 2456 3309 1997 
z
" transform="scale(0.015625)"/>
       <path id="DejaVuSansMono-6f" d="M 1925 3097 
Q 1488 3097 1263 2756 
Q 1038 2416 1038 1747 
Q 1038 1081 1263 739 
Q 1488 397 1925 397 
Q 2366 397 2591 739 
Q 2816 1081 2816 1747 
Q 2816 2416 2591 2756 
Q 2366 3097 1925 3097 
z
M 1925 3584 
Q 2653 3584 3039 3112 
Q 3425 2641 3425 1747 
Q 3425 850 3040 379 
Q 2656 -91 1925 -91 
Q 1197 -91 812 379 
Q 428 850 428 1747 
Q 428 2641 812 3112 
Q 1197 3584 1925 3584 
z
" transform="scale(0.015625)"/>
       <path id="DejaVuSansMono-6d" d="M 2113 3144 
Q 2219 3369 2383 3476 
Q 2547 3584 2778 3584 
Q 3200 3584 3373 3257 
Q 3547 2931 3547 2028 
L 3547 0 
L 3022 0 
L 3022 2003 
Q 3022 2744 2939 2923 
Q 2856 3103 2638 3103 
Q 2388 3103 2295 2911 
Q 2203 2719 2203 2003 
L 2203 0 
L 1678 0 
L 1678 2003 
Q 1678 2753 1589 2928 
Q 1500 3103 1269 3103 
Q 1041 3103 952 2911 
Q 863 2719 863 2003 
L 863 0 
L 341 0 
L 341 3500 
L 863 3500 
L 863 3200 
Q 966 3388 1120 3486 
Q 1275 3584 1472 3584 
Q 1709 3584 1867 3475 
Q 2025 3366 2113 3144 
z
" transform="scale(0.015625)"/>
       <path id="DejaVuSansMono-74" d="M 1919 4494 
L 1919 3500 
L 3225 3500 
L 3225 3053 
L 1919 3053 
L 1919 1153 
Q 1919 766 2066 612 
Q 2213 459 2578 459 
L 3225 459 
L 3225 0 
L 2522 0 
Q 1875 0 1609 259 
Q 1344 519 1344 1153 
L 1344 3053 
L 409 3053 
L 409 3500 
L 1344 3500 
L 1344 4494 
L 1919 4494 
z
" transform="scale(0.015625)"/>
       <path id="DejaVuSansMono-31" d="M 844 531 
L 1825 531 
L 1825 4097 
L 769 3859 
L 769 4434 
L 1819 4666 
L 2450 4666 
L 2450 531 
L 3419 531 
L 3419 0 
L 844 0 
L 844 531 
z
" transform="scale(0.015625)"/>
       <path id="DejaVuSansMono-39" d="M 1863 2069 
Q 2266 2069 2495 2359 
Q 2725 2650 2725 3163 
Q 2725 3675 2495 3965 
Q 2266 4256 1863 4256 
Q 1444 4256 1231 3979 
Q 1019 3703 1019 3163 
Q 1019 2619 1230 2344 
Q 1441 2069 1863 2069 
z
M 738 97 
L 738 678 
Q 934 563 1156 502 
Q 1378 441 1619 441 
Q 2219 441 2526 892 
Q 2834 1344 2834 2222 
Q 2688 1909 2422 1742 
Q 2156 1575 1813 1575 
Q 1138 1575 767 1990 
Q 397 2406 397 3169 
Q 397 3922 776 4336 
Q 1156 4750 1850 4750 
Q 2663 4750 3041 4165 
Q 3419 3581 3419 2328 
Q 3419 1150 2964 529 
Q 2509 -91 1644 -91 
Q 1416 -91 1184 -42 
Q 953 6 738 97 
z
" transform="scale(0.015625)"/>
      </defs>
      <use xlink:href="#DejaVuSansMono-64"/>
      <use xlink:href="#DejaVuSansMono-65" transform="translate(60.205078 0)"/>
      <use xlink:href="#DejaVuSansMono-67" transform="translate(120.410156 0)"/>
      <use xlink:href="#DejaVuSansMono-72" transform="translate(180.615234 0)"/>
      <use xlink:href="#DejaVuSansMono-61" transform="translate(240.820312 0)"/>
      <use xlink:href="#DejaVuSansMono-64" transform="translate(301.025391 0)"/>
      <use xlink:href="#DejaVuSansMono-65" transform="translate(361.230469 0)"/>
      <use xlink:href="#DejaVuSansMono-64" transform="translate(421.435547 0)"/>
      <use xlink:href="#DejaVuSansMono-20" transform="translate(481.640625 0)"/>
      <use xlink:href="#DejaVuSansMono-70" transform="translate(541.845703 0)"/>
      <use xlink:href="#DejaVuSansMono-72" transform="translate(602.050781 0)"/>
      <use xlink:href="#DejaVuSansMono-6f" transform="translate(662.255859 0)"/>
      <use xlink:href="#DejaVuSansMono-6d" transform="translate(722.460938 0)"/>
      <use xlink:href="#DejaVuSansMono-70" transform="translate(782.666016 0)"/>
      <use xlink:href="#DejaVuSansMono-74" transform="translate(842.871094 0)"/>
      <use xlink:href="#DejaVuSansMono-20" transform="translate(903.076172 0)"/>
      <use xlink:href="#DejaVuSansMono-30" transform="translate(963.28125 0)"/>
      <use xlink:href="#DejaVuSansMono-2e" transform="translate(1023.486328 0)"/>
      <use xlink:href="#DejaVuSansMono-30" transform="translate(1083.691406 0)"/>
      <use xlink:href="#DejaVuSansMono-20" transform="translate(1143.896484 0)"/>
      <use xlink:href="#DejaVuSansMono-2013" transform="translate(1204.101562 0)"/>
      <use xlink:href="#DejaVuSansMono-20" transform="translate(1264.306641 0)"/>
      <use xlink:href="#DejaVuSansMono-31" transform="translate(1324.511719 0)"/>
      <use xlink:href="#DejaVuSansMono-2e" transform="translate(1384.716797 0)"/>
      <use xlink:href="#DejaVuSansMono-30" transform="translate(1444.921875 0)"/>
      <use xlink:href="#DejaVuSansMono-20" transform="translate(1505.126953 0)"/>
      <use xlink:href="#DejaVuSansMono-20" transform="translate(1565.332031 0)"/>
      <use xlink:href="#DejaVuSansMono-394" transform="translate(1625.537109 0)"/>
      <use xlink:href="#DejaVuSansMono-3d" transform="translate(1685.742188 0)"/>
      <use xlink:href="#DejaVuSansMono-33" transform="translate(1745.947266 0)"/>
      <use xlink:href="#DejaVuSansMono-39" transform="translate(1806.152344 0)"/>
      <use xlink:href="#DejaVuSansMono-70" transform="translate(1866.357422 0)"/>
      <use xlink:href="#DejaVuSansMono-70" transform="translate(1926.5625 0)"/>
     </g>
    </g>
    <g id="line2d_29">
     <path d="M 220.450928 206.437487 
L 230.450928 206.437487 
L 240.450928 206.437487 
" style="fill: none; stroke: #c07d00; stroke-width: 2.5; stroke-linecap: square"/>
    </g>
    <g id="text_17">
     <!-- temperature     1.2 – 1.9  Δ=35pp -->
     <g transform="translate(248.450928 209.937487) scale(0.1 -0.1)">
      <defs>
       <path id="DejaVuSansMono-75" d="M 609 1325 
L 609 3494 
L 1184 3494 
L 1184 1325 
Q 1184 853 1351 631 
Q 1519 409 1869 409 
Q 2275 409 2490 695 
Q 2706 981 2706 1516 
L 2706 3494 
L 3284 3494 
L 3284 0 
L 2706 0 
L 2706 525 
Q 2553 222 2289 65 
Q 2025 -91 1672 -91 
Q 1134 -91 871 261 
Q 609 613 609 1325 
z
" transform="scale(0.015625)"/>
       <path id="DejaVuSansMono-35" d="M 647 4666 
L 3009 4666 
L 3009 4134 
L 1222 4134 
L 1222 2988 
Q 1356 3038 1492 3061 
Q 1628 3084 1766 3084 
Q 2491 3084 2916 2656 
Q 3341 2228 3341 1497 
Q 3341 759 2895 334 
Q 2450 -91 1678 -91 
Q 1306 -91 998 -41 
Q 691 9 447 109 
L 447 750 
Q 734 594 1025 517 
Q 1316 441 1619 441 
Q 2141 441 2423 716 
Q 2706 991 2706 1497 
Q 2706 1997 2414 2275 
Q 2122 2553 1600 2553 
Q 1347 2553 1106 2495 
Q 866 2438 647 2322 
L 647 4666 
z
" transform="scale(0.015625)"/>
      </defs>
      <use xlink:href="#DejaVuSansMono-74"/>
      <use xlink:href="#DejaVuSansMono-65" transform="translate(60.205078 0)"/>
      <use xlink:href="#DejaVuSansMono-6d" transform="translate(120.410156 0)"/>
      <use xlink:href="#DejaVuSansMono-70" transform="translate(180.615234 0)"/>
      <use xlink:href="#DejaVuSansMono-65" transform="translate(240.820312 0)"/>
      <use xlink:href="#DejaVuSansMono-72" transform="translate(301.025391 0)"/>
      <use xlink:href="#DejaVuSansMono-61" transform="translate(361.230469 0)"/>
      <use xlink:href="#DejaVuSansMono-74" transform="translate(421.435547 0)"/>
      <use xlink:href="#DejaVuSansMono-75" transform="translate(481.640625 0)"/>
      <use xlink:href="#DejaVuSansMono-72" transform="translate(541.845703 0)"/>
      <use xlink:href="#DejaVuSansMono-65" transform="translate(602.050781 0)"/>
      <use xlink:href="#DejaVuSansMono-20" transform="translate(662.255859 0)"/>
      <use xlink:href="#DejaVuSansMono-20" transform="translate(722.460938 0)"/>
      <use xlink:href="#DejaVuSansMono-20" transform="translate(782.666016 0)"/>
      <use xlink:href="#DejaVuSansMono-20" transform="translate(842.871094 0)"/>
      <use xlink:href="#DejaVuSansMono-20" transform="translate(903.076172 0)"/>
      <use xlink:href="#DejaVuSansMono-31" transform="translate(963.28125 0)"/>
      <use xlink:href="#DejaVuSansMono-2e" transform="translate(1023.486328 0)"/>
      <use xlink:href="#DejaVuSansMono-32" transform="translate(1083.691406 0)"/>
      <use xlink:href="#DejaVuSansMono-20" transform="translate(1143.896484 0)"/>
      <use xlink:href="#DejaVuSansMono-2013" transform="translate(1204.101562 0)"/>
      <use xlink:href="#DejaVuSansMono-20" transform="translate(1264.306641 0)"/>
      <use xlink:href="#DejaVuSansMono-31" transform="translate(1324.511719 0)"/>
      <use xlink:href="#DejaVuSansMono-2e" transform="translate(1384.716797 0)"/>
      <use xlink:href="#DejaVuSansMono-39" transform="translate(1444.921875 0)"/>
      <use xlink:href="#DejaVuSansMono-20" transform="translate(1505.126953 0)"/>
      <use xlink:href="#DejaVuSansMono-20" transform="translate(1565.332031 0)"/>
      <use xlink:href="#DejaVuSansMono-394" transform="translate(1625.537109 0)"/>
      <use xlink:href="#DejaVuSansMono-3d" transform="translate(1685.742188 0)"/>
      <use xlink:href="#DejaVuSansMono-33" transform="translate(1745.947266 0)"/>
      <use xlink:href="#DejaVuSansMono-35" transform="translate(1806.152344 0)"/>
      <use xlink:href="#DejaVuSansMono-70" transform="translate(1866.357422 0)"/>
      <use xlink:href="#DejaVuSansMono-70" transform="translate(1926.5625 0)"/>
     </g>
    </g>
    <g id="line2d_30">
     <path d="M 220.450928 221.168737 
L 230.450928 221.168737 
L 240.450928 221.168737 
" style="fill: none; stroke-dasharray: 16,4,2.5,4; stroke-dashoffset: 0; stroke: #cfc632; stroke-width: 2.5"/>
    </g>
    <g id="text_18">
     <!-- size (deepseek) 70b – 1.5b Δ=40pp -->
     <g transform="translate(248.450928 224.668737) scale(0.1 -0.1)">
      <defs>
       <path id="DejaVuSansMono-6b" d="M 738 4863 
L 1331 4863 
L 1331 2047 
L 2841 3500 
L 3541 3500 
L 2163 2181 
L 3756 0 
L 3053 0 
L 1759 1806 
L 1331 1403 
L 1331 0 
L 738 0 
L 738 4863 
z
" transform="scale(0.015625)"/>
       <path id="DejaVuSansMono-34" d="M 2297 4091 
L 825 1625 
L 2297 1625 
L 2297 4091 
z
M 2194 4666 
L 2925 4666 
L 2925 1625 
L 3547 1625 
L 3547 1113 
L 2925 1113 
L 2925 0 
L 2297 0 
L 2297 1113 
L 319 1113 
L 319 1709 
L 2194 4666 
z
" transform="scale(0.015625)"/>
      </defs>
      <use xlink:href="#DejaVuSansMono-73"/>
      <use xlink:href="#DejaVuSansMono-69" transform="translate(60.205078 0)"/>
      <use xlink:href="#DejaVuSansMono-7a" transform="translate(120.410156 0)"/>
      <use xlink:href="#DejaVuSansMono-65" transform="translate(180.615234 0)"/>
      <use xlink:href="#DejaVuSansMono-20" transform="translate(240.820312 0)"/>
      <use xlink:href="#DejaVuSansMono-28" transform="translate(301.025391 0)"/>
      <use xlink:href="#DejaVuSansMono-64" transform="translate(361.230469 0)"/>
      <use xlink:href="#DejaVuSansMono-65" transform="translate(421.435547 0)"/>
      <use xlink:href="#DejaVuSansMono-65" transform="translate(481.640625 0)"/>
      <use xlink:href="#DejaVuSansMono-70" transform="translate(541.845703 0)"/>
      <use xlink:href="#DejaVuSansMono-73" transform="translate(602.050781 0)"/>
      <use xlink:href="#DejaVuSansMono-65" transform="translate(662.255859 0)"/>
      <use xlink:href="#DejaVuSansMono-65" transform="translate(722.460938 0)"/>
      <use xlink:href="#DejaVuSansMono-6b" transform="translate(782.666016 0)"/>
      <use xlink:href="#DejaVuSansMono-29" transform="translate(842.871094 0)"/>
      <use xlink:href="#DejaVuSansMono-20" transform="translate(903.076172 0)"/>
      <use xlink:href="#DejaVuSansMono-37" transform="translate(963.28125 0)"/>
      <use xlink:href="#DejaVuSansMono-30" transform="translate(1023.486328 0)"/>
      <use xlink:href="#DejaVuSansMono-62" transform="translate(1083.691406 0)"/>
      <use xlink:href="#DejaVuSansMono-20" transform="translate(1143.896484 0)"/>
      <use xlink:href="#DejaVuSansMono-2013" transform="translate(1204.101562 0)"/>
      <use xlink:href="#DejaVuSansMono-20" transform="translate(1264.306641 0)"/>
      <use xlink:href="#DejaVuSansMono-31" transform="translate(1324.511719 0)"/>
      <use xlink:href="#DejaVuSansMono-2e" transform="translate(1384.716797 0)"/>
      <use xlink:href="#DejaVuSansMono-35" transform="translate(1444.921875 0)"/>
      <use xlink:href="#DejaVuSansMono-62" transform="translate(1505.126953 0)"/>
      <use xlink:href="#DejaVuSansMono-20" transform="translate(1565.332031 0)"/>
      <use xlink:href="#DejaVuSansMono-394" transform="translate(1625.537109 0)"/>
      <use xlink:href="#DejaVuSansMono-3d" transform="translate(1685.742188 0)"/>
      <use xlink:href="#DejaVuSansMono-34" transform="translate(1745.947266 0)"/>
      <use xlink:href="#DejaVuSansMono-30" transform="translate(1806.152344 0)"/>
      <use xlink:href="#DejaVuSansMono-70" transform="translate(1866.357422 0)"/>
      <use xlink:href="#DejaVuSansMono-70" transform="translate(1926.5625 0)"/>
     </g>
    </g>
   </g>
   <g id="legend_2">
    <g id="patch_8">
     <path d="M 60.596637 231.587019 
L 200.962262 231.587019 
Q 202.962262 231.587019 202.962262 229.587019 
L 202.962262 138.4108 
Q 202.962262 136.4108 200.962262 136.4108 
L 60.596637 136.4108 
Q 58.596637 136.4108 58.596637 138.4108 
L 58.596637 229.587019 
Q 58.596637 231.587019 60.596637 231.587019 
z
" style="fill: #ffffff; opacity: 0.8; stroke: #cccccc; stroke-linejoin: miter"/>
    </g>
    <g id="text_19">
     <!-- Baseline -->
     <g transform="translate(77.345387 150.288769) scale(0.13 -0.13)">
      <defs>
       <path id="DejaVuSerif-42" d="M 1581 331 
L 2516 331 
Q 3078 331 3337 575 
Q 3597 819 3597 1350 
Q 3597 1878 3339 2120 
Q 3081 2363 2516 2363 
L 1581 2363 
L 1581 331 
z
M 1581 2694 
L 2375 2694 
Q 2888 2694 3123 2891 
Q 3359 3088 3359 3513 
Q 3359 3941 3123 4136 
Q 2888 4331 2375 4331 
L 1581 4331 
L 1581 2694 
z
M 353 0 
L 353 331 
L 947 331 
L 947 4331 
L 353 4331 
L 353 4666 
L 2656 4666 
Q 3363 4666 3720 4377 
Q 4078 4088 4078 3513 
Q 4078 3097 3829 2850 
Q 3581 2603 3103 2547 
Q 3697 2472 4005 2167 
Q 4313 1863 4313 1350 
Q 4313 656 3875 328 
Q 3438 0 2509 0 
L 353 0 
z
" transform="scale(0.015625)"/>
      </defs>
      <use xlink:href="#DejaVuSerif-42"/>
      <use xlink:href="#DejaVuSerif-61" transform="translate(73.486328 0)"/>
      <use xlink:href="#DejaVuSerif-73" transform="translate(133.105469 0)"/>
      <use xlink:href="#DejaVuSerif-65" transform="translate(184.423828 0)"/>
      <use xlink:href="#DejaVuSerif-6c" transform="translate(243.603516 0)"/>
      <use xlink:href="#DejaVuSerif-69" transform="translate(275.585938 0)"/>
      <use xlink:href="#DejaVuSerif-6e" transform="translate(307.568359 0)"/>
      <use xlink:href="#DejaVuSerif-65" transform="translate(371.972656 0)"/>
     </g>
     <!-- No Perturbation -->
     <g transform="translate(77.345387 164.845925) scale(0.13 -0.13)">
      <defs>
       <path id="DejaVuSerif-4e" d="M 313 0 
L 313 331 
L 941 331 
L 941 4331 
L 313 4331 
L 313 4666 
L 1509 4666 
L 4306 984 
L 4306 4331 
L 3681 4331 
L 3681 4666 
L 5319 4666 
L 5319 4331 
L 4691 4331 
L 4691 -91 
L 4313 -91 
L 1325 3841 
L 1325 331 
L 1953 331 
L 1953 0 
L 313 0 
z
" transform="scale(0.015625)"/>
      </defs>
      <use xlink:href="#DejaVuSerif-4e"/>
      <use xlink:href="#DejaVuSerif-6f" transform="translate(87.5 0)"/>
      <use xlink:href="#DejaVuSerif-20" transform="translate(147.705078 0)"/>
      <use xlink:href="#DejaVuSerif-50" transform="translate(179.492188 0)"/>
      <use xlink:href="#DejaVuSerif-65" transform="translate(242.277344 0)"/>
      <use xlink:href="#DejaVuSerif-72" transform="translate(301.457031 0)"/>
      <use xlink:href="#DejaVuSerif-74" transform="translate(349.259766 0)"/>
      <use xlink:href="#DejaVuSerif-75" transform="translate(389.445312 0)"/>
      <use xlink:href="#DejaVuSerif-72" transform="translate(453.849609 0)"/>
      <use xlink:href="#DejaVuSerif-62" transform="translate(501.652344 0)"/>
      <use xlink:href="#DejaVuSerif-61" transform="translate(565.666016 0)"/>
      <use xlink:href="#DejaVuSerif-74" transform="translate(625.285156 0)"/>
      <use xlink:href="#DejaVuSerif-69" transform="translate(665.470703 0)"/>
      <use xlink:href="#DejaVuSerif-6f" transform="translate(697.453125 0)"/>
      <use xlink:href="#DejaVuSerif-6e" transform="translate(757.658203 0)"/>
     </g>
    </g>
    <g id="PathCollection_5">
     <g>
      <use xlink:href="#m22324bd81f" x="72.596637" y="177.576081" style="fill: #00775f; stroke: #000000; stroke-width: 0.5"/>
     </g>
    </g>
    <g id="text_20">
     <!-- qwen3_32b    t=0.0 -->
     <g transform="translate(90.596637 180.201081) scale(0.1 -0.1)">
      <defs>
       <path id="DejaVuSansMono-5f" d="M 3853 -1259 
L 3853 -1509 
L 0 -1509 
L 0 -1259 
L 3853 -1259 
z
" transform="scale(0.015625)"/>
      </defs>
      <use xlink:href="#DejaVuSansMono-71"/>
      <use xlink:href="#DejaVuSansMono-77" transform="translate(60.205078 0)"/>
      <use xlink:href="#DejaVuSansMono-65" transform="translate(120.410156 0)"/>
      <use xlink:href="#DejaVuSansMono-6e" transform="translate(180.615234 0)"/>
      <use xlink:href="#DejaVuSansMono-33" transform="translate(240.820312 0)"/>
      <use xlink:href="#DejaVuSansMono-5f" transform="translate(301.025391 0)"/>
      <use xlink:href="#DejaVuSansMono-33" transform="translate(361.230469 0)"/>
      <use xlink:href="#DejaVuSansMono-32" transform="translate(421.435547 0)"/>
      <use xlink:href="#DejaVuSansMono-62" transform="translate(481.640625 0)"/>
      <use xlink:href="#DejaVuSansMono-20" transform="translate(541.845703 0)"/>
      <use xlink:href="#DejaVuSansMono-20" transform="translate(602.050781 0)"/>
      <use xlink:href="#DejaVuSansMono-20" transform="translate(662.255859 0)"/>
      <use xlink:href="#DejaVuSansMono-20" transform="translate(722.460938 0)"/>
      <use xlink:href="#DejaVuSansMono-74" transform="translate(782.666016 0)"/>
      <use xlink:href="#DejaVuSansMono-3d" transform="translate(842.871094 0)"/>
      <use xlink:href="#DejaVuSansMono-30" transform="translate(903.076172 0)"/>
      <use xlink:href="#DejaVuSansMono-2e" transform="translate(963.28125 0)"/>
      <use xlink:href="#DejaVuSansMono-30" transform="translate(1023.486328 0)"/>
     </g>
    </g>
    <g id="PathCollection_6">
     <g>
      <use xlink:href="#m97ca817183" x="72.596637" y="192.585456" style="fill: #3a87b7; stroke: #000000; stroke-width: 0.5"/>
     </g>
    </g>
    <g id="text_21">
     <!-- gpt_4o_mini  t=0.0 -->
     <g transform="translate(90.596637 195.210456) scale(0.1 -0.1)">
      <use xlink:href="#DejaVuSansMono-67"/>
      <use xlink:href="#DejaVuSansMono-70" transform="translate(60.205078 0)"/>
      <use xlink:href="#DejaVuSansMono-74" transform="translate(120.410156 0)"/>
      <use xlink:href="#DejaVuSansMono-5f" transform="translate(180.615234 0)"/>
      <use xlink:href="#DejaVuSansMono-34" transform="translate(240.820312 0)"/>
      <use xlink:href="#DejaVuSansMono-6f" transform="translate(301.025391 0)"/>
      <use xlink:href="#DejaVuSansMono-5f" transform="translate(361.230469 0)"/>
      <use xlink:href="#DejaVuSansMono-6d" transform="translate(421.435547 0)"/>
      <use xlink:href="#DejaVuSansMono-69" transform="translate(481.640625 0)"/>
      <use xlink:href="#DejaVuSansMono-6e" transform="translate(541.845703 0)"/>
      <use xlink:href="#DejaVuSansMono-69" transform="translate(602.050781 0)"/>
      <use xlink:href="#DejaVuSansMono-20" transform="translate(662.255859 0)"/>
      <use xlink:href="#DejaVuSansMono-20" transform="translate(722.460938 0)"/>
      <use xlink:href="#DejaVuSansMono-74" transform="translate(782.666016 0)"/>
      <use xlink:href="#DejaVuSansMono-3d" transform="translate(842.871094 0)"/>
      <use xlink:href="#DejaVuSansMono-30" transform="translate(903.076172 0)"/>
      <use xlink:href="#DejaVuSansMono-2e" transform="translate(963.28125 0)"/>
      <use xlink:href="#DejaVuSansMono-30" transform="translate(1023.486328 0)"/>
     </g>
    </g>
    <g id="PathCollection_7">
     <g>
      <use xlink:href="#mbad29de8a6" x="72.596637" y="207.594831" style="fill: #c07d00; stroke: #000000; stroke-width: 0.5"/>
     </g>
    </g>
    <g id="text_22">
     <!-- gpt_4o_mini  t=1.2 -->
     <g transform="translate(90.596637 210.219831) scale(0.1 -0.1)">
      <use xlink:href="#DejaVuSansMono-67"/>
      <use xlink:href="#DejaVuSansMono-70" transform="translate(60.205078 0)"/>
      <use xlink:href="#DejaVuSansMono-74" transform="translate(120.410156 0)"/>
      <use xlink:href="#DejaVuSansMono-5f" transform="translate(180.615234 0)"/>
      <use xlink:href="#DejaVuSansMono-34" transform="translate(240.820312 0)"/>
      <use xlink:href="#DejaVuSansMono-6f" transform="translate(301.025391 0)"/>
      <use xlink:href="#DejaVuSansMono-5f" transform="translate(361.230469 0)"/>
      <use xlink:href="#DejaVuSansMono-6d" transform="translate(421.435547 0)"/>
      <use xlink:href="#DejaVuSansMono-69" transform="translate(481.640625 0)"/>
      <use xlink:href="#DejaVuSansMono-6e" transform="translate(541.845703 0)"/>
      <use xlink:href="#DejaVuSansMono-69" transform="translate(602.050781 0)"/>
      <use xlink:href="#DejaVuSansMono-20" transform="translate(662.255859 0)"/>
      <use xlink:href="#DejaVuSansMono-20" transform="translate(722.460938 0)"/>
      <use xlink:href="#DejaVuSansMono-74" transform="translate(782.666016 0)"/>
      <use xlink:href="#DejaVuSansMono-3d" transform="translate(842.871094 0)"/>
      <use xlink:href="#DejaVuSansMono-31" transform="translate(903.076172 0)"/>
      <use xlink:href="#DejaVuSansMono-2e" transform="translate(963.28125 0)"/>
      <use xlink:href="#DejaVuSansMono-32" transform="translate(1023.486328 0)"/>
     </g>
    </g>
    <g id="PathCollection_8">
     <g>
      <use xlink:href="#m2b0fe18de4" x="72.596637" y="222.604206" style="fill: #cfc632; stroke: #000000; stroke-width: 0.5"/>
     </g>
    </g>
    <g id="text_23">
     <!-- deepseek_70b t=0.0 -->
     <g transform="translate(90.596637 225.229206) scale(0.1 -0.1)">
      <use xlink:href="#DejaVuSansMono-64"/>
      <use xlink:href="#DejaVuSansMono-65" transform="translate(60.205078 0)"/>
      <use xlink:href="#DejaVuSansMono-65" transform="translate(120.410156 0)"/>
      <use xlink:href="#DejaVuSansMono-70" transform="translate(180.615234 0)"/>
      <use xlink:href="#DejaVuSansMono-73" transform="translate(240.820312 0)"/>
      <use xlink:href="#DejaVuSansMono-65" transform="translate(301.025391 0)"/>
      <use xlink:href="#DejaVuSansMono-65" transform="translate(361.230469 0)"/>
      <use xlink:href="#DejaVuSansMono-6b" transform="translate(421.435547 0)"/>
      <use xlink:href="#DejaVuSansMono-5f" transform="translate(481.640625 0)"/>
      <use xlink:href="#DejaVuSansMono-37" transform="translate(541.845703 0)"/>
      <use xlink:href="#DejaVuSansMono-30" transform="translate(602.050781 0)"/>
      <use xlink:href="#DejaVuSansMono-62" transform="translate(662.255859 0)"/>
      <use xlink:href="#DejaVuSansMono-20" transform="translate(722.460938 0)"/>
      <use xlink:href="#DejaVuSansMono-74" transform="translate(782.666016 0)"/>
      <use xlink:href="#DejaVuSansMono-3d" transform="translate(842.871094 0)"/>
      <use xlink:href="#DejaVuSansMono-30" transform="translate(903.076172 0)"/>
      <use xlink:href="#DejaVuSansMono-2e" transform="translate(963.28125 0)"/>
      <use xlink:href="#DejaVuSansMono-30" transform="translate(1023.486328 0)"/>
     </g>
    </g>
   </g>
  </g>
 </g>
 <defs>
  <clipPath id="pd4a4eee8b4">
   <rect x="47.019375" y="7.2" width="657.726214" height="230.02"/>
  </clipPath>
 </defs>
</svg>
